<?xml version="1.0" encoding="UTF-8" standalone="no"?>
<!-- Created with Inkscape (http://www.inkscape.org/) -->

<svg
   width="600mm"
   height="300mm"
   viewBox="0 0 600 300"
   version="1.1"
   id="svg2126"
   xml:space="preserve"
   inkscape:version="1.2.1 (9c6d41e410, 2022-07-14)"
   sodipodi:docname="plaat3.svg"
   xmlns:inkscape="http://www.inkscape.org/namespaces/inkscape"
   xmlns:sodipodi="http://sodipodi.sourceforge.net/DTD/sodipodi-0.dtd"
   xmlns="http://www.w3.org/2000/svg"
   xmlns:svg="http://www.w3.org/2000/svg"><sodipodi:namedview
     id="namedview2128"
     pagecolor="#ffffff"
     bordercolor="#000000"
     borderopacity="0.25"
     inkscape:showpageshadow="2"
     inkscape:pageopacity="0.0"
     inkscape:pagecheckerboard="0"
     inkscape:deskcolor="#d1d1d1"
     inkscape:document-units="mm"
     showgrid="false"
     inkscape:zoom="0.5"
     inkscape:cx="1046"
     inkscape:cy="695"
     inkscape:window-width="1920"
     inkscape:window-height="1001"
     inkscape:window-x="-9"
     inkscape:window-y="-9"
     inkscape:window-maximized="1"
     inkscape:current-layer="g6091" /><defs
     id="defs2123"><marker
       id="DistanceX"
       orient="auto"
       refX="0.0"
       refY="0.0"
       style="overflow:visible"><path
         d="M 3,-3 L -3,3 M 0,-5 L  0,5"
         style="stroke:#000000; stroke-width:0.5"
         id="path2132" /></marker><pattern
       id="Hatch"
       patternUnits="userSpaceOnUse"
       width="8"
       height="8"
       x="0"
       y="0"><path
         d="M8 4 l-4,4"
         stroke="#000000"
         stroke-width="0.25"
         linecap="square"
         id="path2135" /><path
         d="M6 2 l-4,4"
         stroke="#000000"
         stroke-width="0.25"
         linecap="square"
         id="path2137" /><path
         d="M4 0 l-4,4"
         stroke="#000000"
         stroke-width="0.25"
         linecap="square"
         id="path2139" /></pattern><symbol
       id="*MODEL_SPACE" /><symbol
       id="*PAPER_SPACE" /><marker
       id="DistanceX-2"
       orient="auto"
       refX="0.0"
       refY="0.0"
       style="overflow:visible"><path
         d="M 3,-3 L -3,3 M 0,-5 L  0,5"
         style="stroke:#000000; stroke-width:0.5"
         id="path4383" /></marker><pattern
       id="Hatch-8"
       patternUnits="userSpaceOnUse"
       width="8"
       height="8"
       x="0"
       y="0"><path
         d="M8 4 l-4,4"
         stroke="#000000"
         stroke-width="0.25"
         linecap="square"
         id="path4386" /><path
         d="M6 2 l-4,4"
         stroke="#000000"
         stroke-width="0.25"
         linecap="square"
         id="path4388" /><path
         d="M4 0 l-4,4"
         stroke="#000000"
         stroke-width="0.25"
         linecap="square"
         id="path4390" /></pattern><symbol
       id="*MODEL_SPACE-1" /><symbol
       id="*PAPER_SPACE-2" /><marker
       id="DistanceX-0"
       orient="auto"
       refX="0.0"
       refY="0.0"
       style="overflow:visible"><path
         d="M 3,-3 L -3,3 M 0,-5 L  0,5"
         style="stroke:#000000; stroke-width:0.5"
         id="path4917" /></marker><pattern
       id="Hatch-2"
       patternUnits="userSpaceOnUse"
       width="8"
       height="8"
       x="0"
       y="0"><path
         d="M8 4 l-4,4"
         stroke="#000000"
         stroke-width="0.25"
         linecap="square"
         id="path4920" /><path
         d="M6 2 l-4,4"
         stroke="#000000"
         stroke-width="0.25"
         linecap="square"
         id="path4922" /><path
         d="M4 0 l-4,4"
         stroke="#000000"
         stroke-width="0.25"
         linecap="square"
         id="path4924" /></pattern><symbol
       id="*MODEL_SPACE-4" /><symbol
       id="*PAPER_SPACE-6" /><marker
       id="DistanceX-5"
       orient="auto"
       refX="0.0"
       refY="0.0"
       style="overflow:visible"><path
         d="M 3,-3 L -3,3 M 0,-5 L  0,5"
         style="stroke:#000000; stroke-width:0.5"
         id="path5859" /></marker><pattern
       id="Hatch-7"
       patternUnits="userSpaceOnUse"
       width="8"
       height="8"
       x="0"
       y="0"><path
         d="M8 4 l-4,4"
         stroke="#000000"
         stroke-width="0.25"
         linecap="square"
         id="path5862" /><path
         d="M6 2 l-4,4"
         stroke="#000000"
         stroke-width="0.25"
         linecap="square"
         id="path5864" /><path
         d="M4 0 l-4,4"
         stroke="#000000"
         stroke-width="0.25"
         linecap="square"
         id="path5866" /></pattern><symbol
       id="*MODEL_SPACE-0" /><symbol
       id="*PAPER_SPACE-1" /></defs><g
     inkscape:label="Layer 1"
     inkscape:groupmode="layer"
     id="layer1"><g
       id="g5462"
       transform="matrix(0.26458333,0,0,0.26458333,310.13135,-290.86704)"
       style="stroke:#ff0000;stroke-opacity:1"><g
         inkscape:label="0"
         id="g4931"
         style="stroke:#ff0000;stroke-opacity:1" /><g
         id="g6434"
         transform="translate(-75.589999,1111.1786)"
         style="stroke:#ff0000;stroke-opacity:1"><g
           inkscape:label="0"
           id="g5873"
           style="stroke:#ff0000;stroke-opacity:1" /><g
           inkscape:label="OUTER_LOOP"
           id="g6091"
           style="stroke:#ff0000;stroke-opacity:1"><path
             style="fill:none;stroke:#ff0000;stroke-linecap:round;stroke-opacity:1"
             d="m -680.315,-11.3386 h -75.591"
             id="path5875" /><path
             style="fill:none;stroke:#ff0000;stroke-linecap:round;stroke-opacity:1"
             d="M -755.906,-11.3386 V 11.3386"
             id="path5877" /><path
             style="fill:none;stroke:#ff0000;stroke-linecap:round;stroke-opacity:1"
             d="M -755.906,11.3386 H -1073.39"
             id="path5879" /><path
             style="fill:none;stroke:#ff0000;stroke-linecap:round;stroke-opacity:1"
             d="M -1073.39,11.3386 V 215.433"
             id="path5881" /><path
             style="fill:none;stroke:#ff0000;stroke-linecap:round;stroke-opacity:1"
             d="m -1073.39,215.433 h -22.67"
             id="path5883" /><path
             style="fill:none;stroke:#ff0000;stroke-linecap:round;stroke-opacity:1"
             d="m -1096.06,215.433 v 75.591"
             id="path5885" /><path
             style="fill:none;stroke:#ff0000;stroke-linecap:round;stroke-opacity:1"
             d="m -1096.06,291.024 h 22.67"
             id="path5887" /><path
             style="fill:none;stroke:#ff0000;stroke-linecap:round;stroke-opacity:1"
             d="m -1073.39,291.024 v 68.031"
             id="path5889" /><path
             style="fill:none;stroke:#ff0000;stroke-linecap:round;stroke-opacity:1"
             d="m -1073.39,517.795 h -22.67"
             id="path5891" /><path
             style="fill:none;stroke:#ff0000;stroke-linecap:round;stroke-opacity:1"
             d="m -1096.06,517.795 v 75.591"
             id="path5893" /><path
             style="fill:none;stroke:#ff0000;stroke-linecap:round;stroke-opacity:1"
             d="m -1096.06,593.386 h 22.67"
             id="path5895" /><path
             style="fill:none;stroke:#ff0000;stroke-linecap:round;stroke-opacity:1"
             d="M -1073.39,593.386 V 729.449"
             id="path5897" /><path
             style="fill:none;stroke:#ff0000;stroke-linecap:round;stroke-opacity:1"
             d="m -1073.39,820.157 h -22.67"
             id="path5899" /><path
             style="fill:none;stroke:#ff0000;stroke-linecap:round;stroke-opacity:1"
             d="m -1096.06,820.157 v 75.591"
             id="path5901" /><path
             style="fill:none;stroke:#ff0000;stroke-linecap:round;stroke-opacity:1"
             d="m -1096.06,895.748 h 22.67"
             id="path5903" /><path
             style="fill:none;stroke:#ff0000;stroke-linecap:round;stroke-opacity:1"
             d="M -1073.39,895.748 V 1099.84"
             id="path5905" /><path
             style="fill:none;stroke:#ff0000;stroke-linecap:round;stroke-opacity:1"
             d="m -1073.39,1099.84 h 317.484"
             id="path5907" /><path
             style="fill:none;stroke:#ff0000;stroke-linecap:round;stroke-opacity:1"
             d="m -755.906,1099.84 v 22.68"
             id="path5909" /><path
             style="fill:none;stroke:#ff0000;stroke-linecap:round;stroke-opacity:1"
             d="m -755.906,1122.52 h 75.591"
             id="path5911" /><path
             style="fill:none;stroke:#ff0000;stroke-linecap:round;stroke-opacity:1"
             d="m -680.315,1122.52 v -22.68"
             id="path5913" /><path
             style="fill:none;stroke:#ff0000;stroke-linecap:round;stroke-opacity:1"
             d="m -680.315,1099.84 h 302.362"
             id="path5915" /><path
             style="fill:none;stroke:#ff0000;stroke-linecap:round;stroke-opacity:1"
             d="m -377.953,1099.84 v 22.68"
             id="path5917" /><path
             style="fill:none;stroke:#ff0000;stroke-linecap:round;stroke-opacity:1"
             d="m -377.953,1122.52 h 75.591"
             id="path5919" /><path
             style="fill:none;stroke:#ff0000;stroke-linecap:round;stroke-opacity:1"
             d="m -302.362,1122.52 v -22.68"
             id="path5921" /><path
             style="fill:none;stroke:#ff0000;stroke-linecap:round;stroke-opacity:1"
             d="M -294.803,1099.84 H 0"
             id="path5923" /><path
             style="fill:none;stroke:#ff0000;stroke-linecap:round;stroke-opacity:1"
             d="m 0,1099.84 v 22.68"
             id="path5925" /><path
             style="fill:none;stroke:#ff0000;stroke-linecap:round;stroke-opacity:1"
             d="M 0,1122.52 H 75.5906"
             id="path5927" /><path
             style="fill:none;stroke:#ff0000;stroke-linecap:round;stroke-opacity:1"
             d="m 75.5906,1122.52 v -22.68"
             id="path5929" /><path
             style="fill:none;stroke:#ff0000;stroke-linecap:round;stroke-opacity:1"
             d="M 75.5906,1099.84 H 370.394"
             id="path5931" /><path
             style="fill:none;stroke:#ff0000;stroke-linecap:round;stroke-opacity:1"
             d="m 377.953,1099.84 v 22.68"
             id="path5933" /><path
             style="fill:none;stroke:#ff0000;stroke-linecap:round;stroke-opacity:1"
             d="m 377.953,1122.52 h 75.59"
             id="path5935" /><path
             style="fill:none;stroke:#ff0000;stroke-linecap:round;stroke-opacity:1"
             d="m 453.543,1122.52 v -22.68"
             id="path5937" /><path
             style="fill:none;stroke:#ff0000;stroke-linecap:round;stroke-opacity:1"
             d="M 453.543,1099.84 H 755.906"
             id="path5939" /><path
             style="fill:none;stroke:#ff0000;stroke-linecap:round;stroke-opacity:1"
             d="m 755.906,1099.84 v 22.68"
             id="path5941" /><path
             style="fill:none;stroke:#ff0000;stroke-linecap:round;stroke-opacity:1"
             d="m 755.906,1122.52 h 75.59"
             id="path5943" /><path
             style="fill:none;stroke:#ff0000;stroke-linecap:round;stroke-opacity:1"
             d="m 831.496,1122.52 v -22.68"
             id="path5945" /><path
             style="fill:none;stroke:#ff0000;stroke-linecap:round;stroke-opacity:1"
             d="M 831.496,1099.84 H 1148.98"
             id="path5947" /><path
             style="fill:none;stroke:#ff0000;stroke-linecap:round;stroke-opacity:1"
             d="M 1148.98,1099.84 V 895.748"
             id="path5949" /><path
             style="fill:none;stroke:#ff0000;stroke-linecap:round;stroke-opacity:1"
             d="m 1148.98,895.748 h 22.67"
             id="path5951" /><path
             style="fill:none;stroke:#ff0000;stroke-linecap:round;stroke-opacity:1"
             d="M 1171.65,895.748 V 820.157"
             id="path5953" /><path
             style="fill:none;stroke:#ff0000;stroke-linecap:round;stroke-opacity:1"
             d="m 1171.65,820.157 h -22.67"
             id="path5955" /><path
             style="fill:none;stroke:#ff0000;stroke-linecap:round;stroke-opacity:1"
             d="M 1148.98,820.157 V 752.126"
             id="path5957" /><path
             style="fill:none;stroke:#ff0000;stroke-linecap:round;stroke-opacity:1"
             d="m 1148.98,593.386 h 22.67"
             id="path5959" /><path
             style="fill:none;stroke:#ff0000;stroke-linecap:round;stroke-opacity:1"
             d="M 1171.65,593.386 V 517.795"
             id="path5961" /><path
             style="fill:none;stroke:#ff0000;stroke-linecap:round;stroke-opacity:1"
             d="m 1171.65,517.795 h -22.67"
             id="path5963" /><path
             style="fill:none;stroke:#ff0000;stroke-linecap:round;stroke-opacity:1"
             d="M 1148.98,517.795 V 381.732"
             id="path5965" /><path
             style="fill:none;stroke:#ff0000;stroke-linecap:round;stroke-opacity:1"
             d="m 1148.98,291.024 h 22.67"
             id="path5967" /><path
             style="fill:none;stroke:#ff0000;stroke-linecap:round;stroke-opacity:1"
             d="M 1171.65,291.024 V 215.433"
             id="path5969" /><path
             style="fill:none;stroke:#ff0000;stroke-linecap:round;stroke-opacity:1"
             d="m 1171.65,215.433 h -22.67"
             id="path5971" /><path
             style="fill:none;stroke:#ff0000;stroke-linecap:round;stroke-opacity:1"
             d="M 1148.98,215.433 V 11.3386"
             id="path5973" /><path
             style="fill:none;stroke:#ff0000;stroke-linecap:round;stroke-opacity:1"
             d="M 1148.98,11.3386 H 831.496"
             id="path5975" /><path
             style="fill:none;stroke:#ff0000;stroke-linecap:round;stroke-opacity:1"
             d="M 831.496,11.3386 V -11.3386"
             id="path5977" /><path
             style="fill:none;stroke:#ff0000;stroke-linecap:round;stroke-opacity:1"
             d="m 831.496,-11.3386 h -75.59"
             id="path5979" /><path
             style="fill:none;stroke:#ff0000;stroke-linecap:round;stroke-opacity:1"
             d="M 755.906,-11.3386 V 11.3386"
             id="path5981" /><path
             style="fill:none;stroke:#ff0000;stroke-linecap:round;stroke-opacity:1"
             d="M 755.906,11.3386 H 453.543"
             id="path5983" /><path
             style="fill:none;stroke:#ff0000;stroke-linecap:round;stroke-opacity:1"
             d="M 453.543,11.3386 V -11.3386"
             id="path5985" /><path
             style="fill:none;stroke:#ff0000;stroke-linecap:round;stroke-opacity:1"
             d="m 453.543,-11.3386 h -75.59"
             id="path5987" /><path
             style="fill:none;stroke:#ff0000;stroke-linecap:round;stroke-opacity:1"
             d="M 377.953,-11.3386 V 11.3386"
             id="path5989" /><path
             style="fill:none;stroke:#ff0000;stroke-linecap:round;stroke-opacity:1"
             d="M 370.394,11.3386 H 75.5906"
             id="path5991" /><path
             style="fill:none;stroke:#ff0000;stroke-linecap:round;stroke-opacity:1"
             d="M 75.5906,11.3386 V -11.3386"
             id="path5993" /><path
             style="fill:none;stroke:#ff0000;stroke-linecap:round;stroke-opacity:1"
             d="M 75.5906,-11.3386 H 0"
             id="path5995" /><path
             style="fill:none;stroke:#ff0000;stroke-linecap:round;stroke-opacity:1"
             d="M 0,-11.3386 V 11.3386"
             id="path5997" /><path
             style="fill:none;stroke:#ff0000;stroke-linecap:round;stroke-opacity:1"
             d="M 0,11.3386 H -294.803"
             id="path5999" /><path
             style="fill:none;stroke:#ff0000;stroke-linecap:round;stroke-opacity:1"
             d="M -302.362,11.3386 V -11.3386"
             id="path6001" /><path
             style="fill:none;stroke:#ff0000;stroke-linecap:round;stroke-opacity:1"
             d="m -302.362,-11.3386 h -75.591"
             id="path6003" /><path
             style="fill:none;stroke:#ff0000;stroke-linecap:round;stroke-opacity:1"
             d="M -377.953,-11.3386 V 11.3386"
             id="path6005" /><path
             style="fill:none;stroke:#ff0000;stroke-linecap:round;stroke-opacity:1"
             d="M -377.953,11.3386 H -680.315"
             id="path6007" /><path
             style="fill:none;stroke:#ff0000;stroke-linecap:round;stroke-opacity:1"
             d="M -680.315,11.3386 V -11.3386"
             id="path6009" /><path
             style="fill:none;stroke:#ff0000;stroke-linecap:round;stroke-opacity:1"
             d="M -1073.39,381.732 V 517.795"
             id="path6011" /><path
             style="fill:none;stroke:#ff0000;stroke-linecap:round;stroke-opacity:1"
             d="m -1073.39,752.126 v 68.031"
             id="path6013" /><path
             style="fill:none;stroke:#ff0000;stroke-linecap:round;stroke-opacity:1"
             d="m -302.362,1099.84 h 7.559"
             id="path6015" /><path
             style="fill:none;stroke:#ff0000;stroke-linecap:round;stroke-opacity:1"
             d="m -1073.39,729.449 v 22.677"
             id="path6017" /><path
             style="fill:none;stroke:#ff0000;stroke-linecap:round;stroke-opacity:1"
             d="m -294.803,11.3386 h -7.559"
             id="path6019" /><path
             style="fill:none;stroke:#ff0000;stroke-linecap:round;stroke-opacity:1"
             d="m -1073.39,359.055 v 22.677"
             id="path6021" /><path
             style="fill:none;stroke:#000000;stroke-linecap:round;stroke-opacity:1"
             d="m -317.48,729.449 h -755.91"
             id="path6023" /><path
             style="fill:none;stroke:#000000;stroke-linecap:round;stroke-opacity:1"
             d="m -1073.39,752.126 h 755.91"
             id="path6025" /><path
             style="fill:none;stroke:#000000;stroke-linecap:round;stroke-opacity:1"
             d="M -317.48,752.126 V 1099.84"
             id="path6027" /><path
             style="fill:none;stroke:#000000;stroke-linecap:round;stroke-opacity:1"
             d="m -317.48,1099.84 h 15.118"
             id="path6029" /><path
             style="fill:none;stroke:#000000;stroke-linecap:round;stroke-opacity:1"
             d="M -294.803,1099.84 V 11.3386"
             id="path6031" /><path
             style="fill:none;stroke:#000000;stroke-linecap:round;stroke-opacity:1"
             d="M -302.362,11.3386 H -317.48"
             id="path6033" /><path
             style="fill:none;stroke:#000000;stroke-linecap:round;stroke-opacity:1"
             d="M -317.48,11.3386 V 359.055"
             id="path6035" /><path
             style="fill:none;stroke:#000000;stroke-linecap:round;stroke-opacity:1"
             d="m -317.48,359.055 h -755.91"
             id="path6037" /><path
             style="fill:none;stroke:#000000;stroke-linecap:round;stroke-opacity:1"
             d="m -1073.39,381.732 h 755.91"
             id="path6039" /><path
             style="fill:none;stroke:#000000;stroke-linecap:round;stroke-opacity:1"
             d="M -317.48,381.732 V 729.449"
             id="path6041" /><path
             style="fill:none;stroke:#ff0000;stroke-linecap:round;stroke-opacity:1"
             d="M 1148.98,359.055 V 291.024"
             id="path6043" /><path
             style="fill:none;stroke:#ff0000;stroke-linecap:round;stroke-opacity:1"
             d="M 1148.98,729.449 V 593.386"
             id="path6045" /><path
             style="fill:none;stroke:#ff0000;stroke-linecap:round;stroke-opacity:1"
             d="m 377.953,11.3386 h -7.559"
             id="path6047" /><path
             style="fill:none;stroke:#ff0000;stroke-linecap:round;stroke-opacity:1"
             d="m 370.394,1099.84 h 7.559"
             id="path6049" /><path
             style="fill:none;stroke:#ff0000;stroke-linecap:round;stroke-opacity:1"
             d="M 1148.98,752.126 V 729.449"
             id="path6051" /><path
             style="fill:none;stroke:#ff0000;stroke-linecap:round;stroke-opacity:1"
             d="M 1148.98,381.732 V 359.055"
             id="path6053" /><path
             style="fill:none;stroke:#000000;stroke-linecap:round;stroke-opacity:1"
             d="M 393.071,359.055 V 11.3386"
             id="path6055" /><path
             style="fill:none;stroke:#000000;stroke-linecap:round;stroke-opacity:1"
             d="M 393.071,11.3386 H 377.953"
             id="path6057" /><path
             style="fill:none;stroke:#000000;stroke-linecap:round;stroke-opacity:1"
             d="M 370.394,11.3386 V 1099.84"
             id="path6059" /><path
             style="fill:none;stroke:#000000;stroke-linecap:round;stroke-opacity:1"
             d="m 377.953,1099.84 h 7.24598 7.87202"
             id="path6061"
             sodipodi:nodetypes="ccc" /><path
             style="fill:none;stroke:#000000;stroke-linecap:round;stroke-opacity:1"
             d="M 393.071,1099.84 V 752.126"
             id="path6063" /><path
             style="fill:none;stroke:#000000;stroke-linecap:round;stroke-opacity:1"
             d="M 393.071,752.126 H 1148.98"
             id="path6065" /><path
             style="fill:none;stroke:#000000;stroke-linecap:round;stroke-opacity:1"
             d="M 1148.98,729.449 H 393.071"
             id="path6067" /><path
             style="fill:none;stroke:#000000;stroke-linecap:round;stroke-opacity:1"
             d="M 393.071,729.449 V 381.732"
             id="path6069" /><path
             style="fill:none;stroke:#000000;stroke-linecap:round;stroke-opacity:1"
             d="M 393.071,381.732 H 1148.98"
             id="path6071" /><path
             style="fill:none;stroke:#000000;stroke-linecap:round;stroke-opacity:1"
             d="M 1148.98,359.055 H 393.071"
             id="path6073" /><path
             style="fill:none;stroke:#000000;stroke-linecap:round;stroke-opacity:1"
             d="m -509.41,909.314 85.177,59.385"
             id="path6075" /><path
             style="fill:none;stroke:#000000;stroke-linecap:round;stroke-opacity:1"
             d="M -424.233,968.699 V 909.314"
             id="path6077" /><path
             style="fill:none;stroke:#000000;stroke-linecap:round;stroke-opacity:1"
             d="M -424.233,909.314 H -509.41"
             id="path6079" /><path
             d="m -420.79099,220.32944 c 7.88943,0 15.40903,-1.72581 22.55883,-5.05416 7.14979,-3.32835 12.57377,-7.88942 16.27193,-13.92976 3.64328,-5.95068 5.67053,-12.20396 5.67053,-28.59917 0,0 -3.94472,-8.25924 -11.71087,-15.16249 -7.69729,-6.84203 -18.12102,-10.35487 -31.43442,-10.35487 -12.82032,0 -22.92864,3.32835 -30.20171,10.2316 -7.27636,6.90638 -11.0945,15.40903 -11.0945,36.11877 0,0 3.69817,8.75233 11.0945,16.0254 7.27204,7.15083 17.01157,10.72468 28.84571,10.72468 z"
             style="fill:none;stroke:#000000;stroke-linecap:round;stroke-opacity:1"
             id="path6081" /><path
             style="fill:none;stroke:#ff0000;stroke-linecap:round;stroke-opacity:1"
             d="m 411.969,1069.61 v 11.33"
             id="path6083" /><path
             style="fill:none;stroke:#ff0000;stroke-linecap:round;stroke-opacity:1"
             d="m 411.969,1080.94 h 75.59"
             id="path6085" /><path
             style="fill:none;stroke:#ff0000;stroke-linecap:round;stroke-opacity:1"
             d="m 487.559,1080.94 v -11.33"
             id="path6087" /><path
             style="fill:none;stroke:#ff0000;stroke-linecap:round;stroke-opacity:1"
             d="m 487.559,1069.61 h -75.59"
             id="path6089" /></g><g
           inkscape:label="INTERIOR_LOOPS"
           id="g6237"
           style="stroke:#ff0000;stroke-opacity:1"><path
             d="m 850.3937,925.98425 a 30.23622,30.23622 0 0 0 -60.47244,0 30.236221,30.236221 0 0 0 60.47244,0 z"
             style="fill:none;stroke:#ff0000;stroke-linecap:round;stroke-opacity:1"
             id="path6093" /><path
             d="m 752.12598,925.98425 a 30.23622,30.23622 0 0 0 -60.47244,0 30.236221,30.236221 0 0 0 60.47244,0 z"
             style="fill:none;stroke:#ff0000;stroke-linecap:round;stroke-opacity:1"
             id="path6095" /><path
             d="m 850.3937,555.59055 a 30.23622,30.23622 0 0 0 -60.47244,0 30.236221,30.236221 0 0 0 60.47244,0 z"
             style="fill:none;stroke:#ff0000;stroke-linecap:round;stroke-opacity:1"
             id="path6097" /><path
             d="m 752.12598,555.59055 a 30.23622,30.23622 0 0 0 -60.47244,0 30.236221,30.236221 0 0 0 60.47244,0 z"
             style="fill:none;stroke:#ff0000;stroke-linecap:round;stroke-opacity:1"
             id="path6099" /><path
             d="m 850.3937,185.19685 a 30.23622,30.23622 0 0 0 -60.47244,0 30.236221,30.236221 0 0 0 60.47244,0 z"
             style="fill:none;stroke:#ff0000;stroke-linecap:round;stroke-opacity:1"
             id="path6101" /><path
             d="m 752.12598,185.19685 a 30.23622,30.23622 0 0 0 -60.47244,0 30.236221,30.236221 0 0 0 60.47244,0 z"
             style="fill:none;stroke:#ff0000;stroke-linecap:round;stroke-opacity:1"
             id="path6103" /><path
             d="m -616.06299,925.98425 a 30.236221,30.236221 0 0 0 -60.47244,0 30.23622,30.23622 0 0 0 60.47244,0 z"
             style="fill:none;stroke:#ff0000;stroke-linecap:round;stroke-opacity:1"
             id="path6105" /><path
             d="m -714.33071,925.98425 a 30.236221,30.236221 0 0 0 -60.47244,0 30.23622,30.23622 0 0 0 60.47244,0 z"
             style="fill:none;stroke:#ff0000;stroke-linecap:round;stroke-opacity:1"
             id="path6107" /><path
             d="m -616.06299,555.59055 a 30.236221,30.236221 0 0 0 -60.47244,0 30.23622,30.23622 0 0 0 60.47244,0 z"
             style="fill:none;stroke:#ff0000;stroke-linecap:round;stroke-opacity:1"
             id="path6109" /><path
             d="m -714.33071,555.59055 a 30.236221,30.236221 0 0 0 -60.47244,0 30.23622,30.23622 0 0 0 60.47244,0 z"
             style="fill:none;stroke:#ff0000;stroke-linecap:round;stroke-opacity:1"
             id="path6111" /><path
             d="m -616.06299,185.19685 a 30.236221,30.236221 0 0 0 -60.47244,0 30.23622,30.23622 0 0 0 60.47244,0 z"
             style="fill:none;stroke:#ff0000;stroke-linecap:round;stroke-opacity:1"
             id="path6113" /><path
             d="m -714.33071,185.19685 a 30.236221,30.236221 0 0 0 -60.47244,0 30.23622,30.23622 0 0 0 60.47244,0 z"
             style="fill:none;stroke:#ff0000;stroke-linecap:round;stroke-opacity:1"
             id="path6115" /><path
             d="m 443.16019,239.89682 a 37.587933,37.587933 0 0 0 4.38165,-0.28269"
             style="fill:none;stroke:#000000;stroke-linecap:round;stroke-opacity:1"
             id="path6117" /><path
             d="m 435.3863,238.34204 a 15.529295,15.529295 0 0 0 7.77389,1.55478"
             style="fill:none;stroke:#000000;stroke-linecap:round;stroke-opacity:1"
             id="path6119" /><path
             d="m 433.83152,236.64592 a 5.595908,5.595908 0 0 0 1.55478,1.69612"
             style="fill:none;stroke:#000000;stroke-linecap:round;stroke-opacity:1"
             id="path6121" /><path
             d="m 433.83152,236.64592 c -0.42404,-0.56538 -0.56538,-1.2721 -0.56538,-1.97881 0,-32.79172 0,-65.58343 0,-98.37514 0,-0.70672 0.14134,-1.27209 0.56538,-1.97881 0.32425,-0.54043 0.84806,-1.13075 1.55478,-1.55478 0.873,-0.5238 1.84993,-0.96862 3.11579,-1.2617 1.26586,-0.29308 2.82064,-0.43442 4.6581,-0.43442 1.69613,0 3.10956,0.14134 4.38165,0.42403 1.2721,0.28268 2.40284,0.56537 3.10956,1.13074"
             style="fill:none;stroke:#000000;stroke-linecap:round;stroke-opacity:1"
             id="path6123" /><path
             d="m 452.63021,134.17181 a 4.376674,4.376674 0 0 0 -1.97881,-1.55478"
             style="fill:none;stroke:#000000;stroke-linecap:round;stroke-opacity:1"
             id="path6125" /><path
             d="m 452.63021,134.17181 c 0.42403,0.56538 0.56538,1.2721 0.56538,2.12016 0,13.09784 0,26.19568 0,39.29352"
             style="fill:none;stroke:#000000;stroke-linecap:round;stroke-opacity:1"
             id="path6127" /><path
             style="fill:none;stroke:#000000;stroke-linecap:round;stroke-opacity:1"
             d="M 453.196,175.585 H 595.953"
             id="path6129" /><path
             d="m 595.95261,175.58549 c -7.16141,-12.06132 -14.32282,-24.12264 -21.48422,-36.18396 -1.06452,-1.79287 -1.55478,-3.39225 -1.69613,-4.523"
             style="fill:none;stroke:#000000;stroke-linecap:round;stroke-opacity:1"
             id="path6131" /><path
             d="m 573.33764,132.193 a 2.988626,2.988626 0 0 0 -0.56538,2.68553"
             style="fill:none;stroke:#000000;stroke-linecap:round;stroke-opacity:1"
             id="path6133" /><path
             d="m 573.33764,132.193 c 0.70672,-0.56537 1.69612,-1.13074 3.10956,-1.27209 1.56737,-0.15674 3.39224,-0.42403 7.20852,-0.42403 0,0 1.41344,0.14134 3.67493,0.42403 0,0 0.98941,0.14135 1.69613,0.42403 0.82856,0.33143 1.55478,0.70672 2.12015,1.27209 0.56538,0.56538 1.13075,1.2721 1.69612,2.12016 9.47365,14.21047 18.4689,28.73986 27.70335,43.10979 0.27547,0.42867 0.42403,0.98941 0.70671,1.55478"
             style="fill:none;stroke:#000000;stroke-linecap:round;stroke-opacity:1"
             id="path6135" /><path
             d="m 621.25311,179.40176 a 22.530414,22.530414 0 0 0 0.56538,2.12016"
             style="fill:none;stroke:#000000;stroke-linecap:round;stroke-opacity:1"
             id="path6137" /><path
             d="m 622.10118,184.63148 a 20.653201,20.653201 0 0 0 -0.28269,-3.10956"
             style="fill:none;stroke:#000000;stroke-linecap:round;stroke-opacity:1"
             id="path6139" /><path
             d="m 622.10118,184.63148 c 0.14134,1.13074 0.14134,2.68552 0.14134,6.78449 0,0 -0.14134,1.83746 -0.28269,3.39224 -0.1425,1.56753 -0.42403,2.82688 -0.84806,3.67494"
             style="fill:none;stroke:#000000;stroke-linecap:round;stroke-opacity:1"
             id="path6141" /><path
             d="m 621.11177,198.48315 c -0.28269,0.84806 -0.70672,1.41343 -1.83747,1.97881 0,0 -0.56537,0.14134 -1.13074,0.14134 -54.98266,0 -109.96532,0 -164.94797,0"
             style="fill:none;stroke:#000000;stroke-linecap:round;stroke-opacity:1"
             id="path6143" /><path
             d="m 453.19559,200.6033 c 0,11.3546 0,22.7092 0,34.06381 0,0.84806 -0.14135,1.55478 -0.56538,2.26149"
             style="fill:none;stroke:#000000;stroke-linecap:round;stroke-opacity:1"
             id="path6145" /><path
             d="m 450.6514,238.48338 a 5.683413,5.683413 0 0 0 1.97881,-1.55478"
             style="fill:none;stroke:#000000;stroke-linecap:round;stroke-opacity:1"
             id="path6147" /><path
             d="m 447.54184,239.61413 a 7.660451,7.660451 0 0 0 3.10956,-1.13075"
             style="fill:none;stroke:#000000;stroke-linecap:round;stroke-opacity:1"
             id="path6149" /><path
             style="fill:none;stroke:#000000;stroke-linecap:round;stroke-opacity:1"
             d="m 455.448,525.452 -10e-4,92.734"
             id="path6151" /><path
             style="fill:none;stroke:#000000;stroke-linecap:round;stroke-opacity:1"
             d="M 455.447,618.186 H 433.266"
             id="path6153" /><path
             style="fill:none;stroke:#000000;stroke-linecap:round;stroke-opacity:1"
             d="m 433.266,618.186 0.002,-125.065"
             id="path6155" /><path
             d="m 433.26782,493.12061 c 5.5139,-0.12525 10.90247,0.75203 16.0404,2.75716 8.45623,3.30012 16.79222,8.27107 25.06298,15.41418 8.20876,7.08958 17.66931,17.16851 28.44631,30.32683 16.76603,20.4707 29.95005,34.33695 39.8499,41.6054 9.81844,7.20867 19.04788,10.90274 27.81999,10.90285 9.14806,1.2e-4 16.91769,-3.25799 23.18357,-9.89965 6.26234,-6.63791 9.52421,-15.1631 9.5245,-36.96806 0,0 -3.38341,-8.89748 -10.02507,-15.66463 -6.64049,-6.76596 -16.0403,-10.15079 -27.81999,-10.15095"
             style="fill:none;stroke:#000000;stroke-linecap:round;stroke-opacity:1"
             id="path6157" /><path
             style="fill:none;stroke:#000000;stroke-linecap:round;stroke-opacity:1"
             d="m 565.35,521.444 2.507,-23.81"
             id="path6159" /><path
             d="m 567.85704,497.63375 c 17.66952,1.62934 31.07824,7.77 40.47679,18.42197 9.3437,10.58981 13.90974,24.93805 13.90926,61.02903 0,0 -5.01282,14.41126 -15.03823,24.93767 -10.088,10.59211 -22.43176,15.91482 -37.21904,15.91462 -7.51895,-9e-5 -14.91257,-1.50398 -22.18085,-4.63698 -7.37396,-3.17854 -15.0378,-8.27104 -23.05792,-15.41416 -8.08236,-7.19854 -19.04777,-19.17358 -33.08293,-35.84078 -11.68892,-13.88097 -19.67429,-22.80775 -23.80967,-26.81791 -4.07274,-3.94944 -8.27075,-7.14312 -12.40614,-9.77481"
             style="fill:none;stroke:#000000;stroke-linecap:round;stroke-opacity:1"
             id="path6161" /><path
             d="m 491.63458,983.73475 a 44.135765,44.135765 0 0 0 41.47597,-39.14113"
             style="fill:none;stroke:#000000;stroke-linecap:round;stroke-opacity:1"
             id="path6163" /><path
             d="m 491.63458,983.73475 c -8.10292,-10e-6 -15.65647,-1.64807 -22.66068,-4.94418 -7.11665,-3.34902 -13.32173,-8.24027 -18.54054,-14.83248 -5.27173,-6.65904 -9.47627,-14.83246 -12.49768,-24.72076 -3.07152,-10.0523 -4.66944,-21.56199 -4.66941,-42.16262 0,0 0.27468,-6.59219 0.6867,-12.49771 0.40315,-5.77837 1.09872,-11.26167 1.78541,-16.34315"
             style="fill:none;stroke:#000000;stroke-linecap:round;stroke-opacity:1"
             id="path6165" /><path
             style="fill:none;stroke:#000000;stroke-linecap:round;stroke-opacity:1"
             d="M 435.738,868.234 H 457.85"
             id="path6167" /><path
             d="m 457.84972,868.23388 c -1.09871,5.90551 -1.78541,12.08569 -2.33477,18.54056 -0.54936,6.45486 -0.82404,13.04706 -0.82405,19.91393 -10e-6,9.20161 0.824,17.02985 2.47204,23.62205 1.60765,6.43063 3.98277,11.81103 10.02561,20.05129 0,0 3.84545,3.02143 8.1029,4.94416 4.37154,1.97425 9.33895,2.74676 14.83245,2.74677 5.08149,0 9.47629,-1.09869 13.32174,-3.29608 3.80108,-2.17204 6.86688,-5.49349 9.33896,-9.47628 2.57181,-4.14346 4.53215,-9.06426 5.7682,-14.6951 1.2648,-5.76186 1.92274,-11.94836 1.92275,-18.67789 10e-6,-7.00422 2e-5,-14.00843 3e-5,-21.01264"
             style="fill:none;stroke:#000000;stroke-linecap:round;stroke-opacity:1"
             id="path6169" /><path
             style="fill:none;stroke:#000000;stroke-linecap:round;stroke-opacity:1"
             d="m 520.476,890.895 h 20.051"
             id="path6171" /><path
             d="m 540.52685,890.89468 c -10e-6,7.09577 -2e-5,14.19154 -3e-5,21.28731 -1e-5,5.4935 0.68667,10.57499 3.70809,19.63926 0,0 2.06005,3.84546 4.8068,7.14156 2.62291,3.14751 6.04284,5.76818 10.02562,7.41624 4.03131,1.66813 8.51492,2.60942 23.48471,2.60944 0,0 7.14155,-3.02141 11.6737,-9.06425 4.41678,-5.88903 6.72956,-14.83244 6.72957,-26.36879 10e-6,-6.18019 -0.68667,-12.63505 -1.9227,-19.22725 -1.23602,-6.5922 -3.0214,-13.59642 -5.49347,-21.14998"
             style="fill:none;stroke:#000000;stroke-linecap:round;stroke-opacity:1"
             id="path6173" /><path
             style="fill:none;stroke:#000000;stroke-linecap:round;stroke-opacity:1"
             d="m 593.539,873.178 h 21.425"
             id="path6175" /><path
             d="m 614.96379,873.17825 c 1.0987,3.2961 2.06006,6.5922 3.02141,10.30031 0.928,3.57943 1.64804,7.14156 2.33472,10.84967 0.6621,3.57533 1.09869,7.14155 1.5107,10.71233 0.4102,3.55513 0.412,7.00421 0.412,10.30031 -10e-6,9.75096 -0.96139,18.40322 -3.1588,25.81944 -2.18632,7.37881 -5.08151,13.5964 -9.0643,18.54055 -4.04989,5.02743 -8.78961,8.78958 -14.42045,11.39899 -5.57845,2.58512 -11.94837,3.70809 -29.52757,3.70807 0,0 -8.78959,-2.60943 -15.93113,-8.10294 -7.07517,-5.44245 -12.77237,-12.7724 -17.02982,-22.11136"
             style="fill:none;stroke:#000000;stroke-linecap:round;stroke-opacity:1"
             id="path6177" /><path
             style="fill:none;stroke:#000000;stroke-linecap:round;stroke-opacity:1"
             d="m -357.676,886.038 v 23.276"
             id="path6179" /><path
             style="fill:none;stroke:#000000;stroke-linecap:round;stroke-opacity:1"
             d="m -357.676,909.314 h -45.168"
             id="path6181" /><path
             style="fill:none;stroke:#000000;stroke-linecap:round;stroke-opacity:1"
             d="m -402.844,909.314 v 82.284"
             id="path6183" /><path
             style="fill:none;stroke:#000000;stroke-linecap:round;stroke-opacity:1"
             d="m -402.844,991.598 h -21.389"
             id="path6185" /><path
             style="fill:none;stroke:#000000;stroke-linecap:round;stroke-opacity:1"
             d="M -424.233,991.598 -546.652,905.036"
             id="path6187" /><path
             style="fill:none;stroke:#000000;stroke-linecap:round;stroke-opacity:1"
             d="M -546.652,905.036 V 886.038"
             id="path6189" /><path
             style="fill:none;stroke:#000000;stroke-linecap:round;stroke-opacity:1"
             d="m -546.652,886.038 h 122.419"
             id="path6191" /><path
             style="fill:none;stroke:#000000;stroke-linecap:round;stroke-opacity:1"
             d="M -424.233,886.038 V 860.371"
             id="path6193" /><path
             style="fill:none;stroke:#000000;stroke-linecap:round;stroke-opacity:1"
             d="m -424.233,860.371 h 21.389"
             id="path6195" /><path
             style="fill:none;stroke:#000000;stroke-linecap:round;stroke-opacity:1"
             d="m -402.844,860.371 v 25.667"
             id="path6197" /><path
             style="fill:none;stroke:#000000;stroke-linecap:round;stroke-opacity:1"
             d="m -402.844,886.038 h 45.168"
             id="path6199" /><path
             d="m -473.96875,587.54611 c -7.76958,-11.40375 -11.77969,-23.30876 -11.77969,-52.25674 0,0 5.76453,-13.91006 17.16828,-25.18849 11.4664,-11.3404 26.06571,-17.04296 43.86056,-17.04296 17.04297,0 31.83024,5.01263 44.23652,14.91259 15.26694,12.18271 22.80749,28.69734 22.80749,66.79337 0,0 -4.762,13.91007 -14.41133,24.81255 -9.53209,10.77002 -22.30623,17.04297 -38.22135,18.54676"
             style="fill:none;stroke:#000000;stroke-linecap:round;stroke-opacity:1"
             id="path6201" /><path
             style="fill:none;stroke:#000000;stroke-linecap:round;stroke-opacity:1"
             d="m -410.308,618.123 -1.755,-24.186"
             id="path6203" /><path
             d="m -412.06269,593.93722 c 11.77969,-1.87974 20.67712,-6.01517 26.56697,-12.53159 5.88985,-6.51643 8.89743,-14.41133 8.89743,-23.81002 0,-11.15312 -4.26074,-20.67713 -12.65691,-28.3214 -8.39616,-7.64427 -19.54928,-11.52906 -33.45934,-11.52906 -13.15817,0 -23.55939,3.75948 -31.20366,11.0278 -7.70685,7.32782 -11.40375,17.16828 -11.40375,36.71756 0,0 1.75442,6.76706 5.13795,12.78222 3.36011,5.97351 7.89491,10.65185 13.4088,14.03538"
             style="fill:none;stroke:#000000;stroke-linecap:round;stroke-opacity:1"
             id="path6205" /><path
             style="fill:none;stroke:#000000;stroke-linecap:round;stroke-opacity:1"
             d="m -446.775,592.308 -3.133,21.805"
             id="path6207" /><path
             style="fill:none;stroke:#000000;stroke-linecap:round;stroke-opacity:1"
             d="m -449.908,614.113 -96.744,-18.171"
             id="path6209" /><path
             style="fill:none;stroke:#000000;stroke-linecap:round;stroke-opacity:1"
             d="M -546.652,595.942 V 502.081"
             id="path6211" /><path
             style="fill:none;stroke:#000000;stroke-linecap:round;stroke-opacity:1"
             d="m -546.652,502.081 h 22.181"
             id="path6213" /><path
             style="fill:none;stroke:#000000;stroke-linecap:round;stroke-opacity:1"
             d="m -524.471,502.081 v 75.44"
             id="path6215" /><path
             style="fill:none;stroke:#000000;stroke-linecap:round;stroke-opacity:1"
             d="m -524.471,577.521 50.502,10.025"
             id="path6217" /><path
             d="m -456.04686,223.90434 c -8.38251,-5.54725 -14.54612,-12.20395 -18.61411,-20.21665 -4.01822,-7.91469 -6.04034,-16.27194 -6.16361,-25.02427 -0.21349,-15.15775 5.67052,-28.10608 16.76503,-38.83076 11.15823,-10.78629 25.51736,-16.0254 54.85615,-16.0254 0,0 10.72469,2.46545 30.6948,12.57377 0,0 7.64288,6.90325 12.94358,15.77885 5.24645,8.78474 7.88943,18.73739 7.88943,29.83189 0,19.1072 -6.90325,34.63951 -20.83301,46.59692 -13.92977,11.95741 -36.85841,17.99775 -68.9092,17.99775 -35.74895,0 -61.7594,-6.65671 -78.03134,-19.97011 -14.09698,-11.53389 -21.20283,-27.24317 -21.20283,-61.51286 0,0 4.06799,-11.95741 12.32723,-21.3261 8.20533,-9.30754 19.35374,-15.03922 33.7766,-16.8883"
             style="fill:none;stroke:#000000;stroke-linecap:round;stroke-opacity:1"
             id="path6219" /><path
             style="fill:none;stroke:#000000;stroke-linecap:round;stroke-opacity:1"
             d="m -500.548,126.889 1.726,22.805"
             id="path6221" /><path
             d="m -498.82233,149.69444 c -8.8756,1.97235 -15.28576,4.80762 -19.35375,8.62906 -6.54648,6.14972 -9.7385,13.80649 -9.7385,30.07843 0,0 2.09562,6.53343 6.04034,12.08068 5.15697,7.252 12.94358,12.69704 22.92864,16.8883 9.98505,4.19126 24.28463,6.28689 42.89874,6.53343"
             style="fill:none;stroke:#000000;stroke-linecap:round;stroke-opacity:1"
             id="path6223" /><path
             d="m -330.70866,925.98425 a 5.6692915,5.6692915 0 0 0 -11.33858,0 5.6692915,5.6692915 0 0 0 11.33858,0 z"
             style="fill:none;stroke:#ff0000;stroke-linecap:round;stroke-opacity:1"
             id="path6225" /><path
             d="m -330.70866,555.59055 a 5.6692915,5.6692915 0 0 0 -11.33858,0 5.6692915,5.6692915 0 0 0 11.33858,0 z"
             style="fill:none;stroke:#ff0000;stroke-linecap:round;stroke-opacity:1"
             id="path6227" /><path
             d="m -330.70866,185.19685 a 5.6692915,5.6692915 0 0 0 -11.33858,0 5.6692915,5.6692915 0 0 0 11.33858,0 z"
             style="fill:none;stroke:#ff0000;stroke-linecap:round;stroke-opacity:1"
             id="path6229" /><path
             d="m 417.63779,185.19685 a 5.669291,5.669291 0 0 0 -11.33858,0 5.669291,5.669291 0 0 0 11.33858,0 z"
             style="fill:none;stroke:#ff0000;stroke-linecap:round;stroke-opacity:1"
             id="path6231" /><path
             d="m 417.63779,555.59055 a 5.669291,5.669291 0 0 0 -11.33858,0 5.669291,5.669291 0 0 0 11.33858,0 z"
             style="fill:none;stroke:#ff0000;stroke-linecap:round;stroke-opacity:1"
             id="path6233" /><path
             d="m 417.63779,925.98425 a 5.669291,5.669291 0 0 0 -11.33858,0 5.669291,5.669291 0 0 0 11.33858,0 z"
             style="fill:none;stroke:#ff0000;stroke-linecap:round;stroke-opacity:1"
             id="path6235" /></g></g></g></g></svg>
