  0
SECTION
  2
HEADER
  9
$ACADVER
  1
AC1014
  9
$ACADMAINTVER
 70
     9
  9
$DWGCODEPAGE
  3
ANSI_1252
  9
$INSBASE
 10
0.0
 20
0.0
 30
0.0
  9
$EXTMIN
 10
0.0
 20
0.0
 30
0.0
  9
$EXTMAX
 10
0.0
 20
0.0
 30
0.0
  9
$LIMMIN
 10
0.0
 20
0.0
  9
$LIMMAX
 10
0.0
 20
0.0
  9
$ORTHOMODE
 70
     0
  9
$REGENMODE
 70
     1
  9
$FILLMODE
 70
     1
  9
$QTEXTMODE
 70
     0
  9
$MIRRTEXT
 70
     1
  9
$DRAGMODE
 70
     2
  9
$LTSCALE
 40
1.0
  9
$OSMODE
 70
    37
  9
$ATTMODE
 70
     1
  9
$TEXTSIZE
 40
2.5
  9
$TRACEWID
 40
1.0
  9
$TEXTSTYLE
  7
STANDARD
  9
$CLAYER
  8
0
  9
$CELTYPE
  6
BYLAYER
  9
$CECOLOR
 62
   256
  9
$CELTSCALE
 40
1.0
  9
$DELOBJ
 70
     1
  9
$DISPSILH
 70
     0
  9
$DIMSCALE
 40
1.0
  9
$DIMASZ
 40
2.5
  9
$DIMEXO
 40
0.625
  9
$DIMDLI
 40
3.75
  9
$DIMRND
 40
0.0
  9
$DIMDLE
 40
0.0
  9
$DIMEXE
 40
1.25
  9
$DIMTP
 40
0.0
  9
$DIMTM
 40
0.0
  9
$DIMTXT
 40
2.5
  9
$DIMCEN
 40
2.5
  9
$DIMTSZ
 40
0.0
  9
$DIMTOL
 70
     0
  9
$DIMLIM
 70
     0
  9
$DIMTIH
 70
     0
  9
$DIMTOH
 70
     0
  9
$DIMSE1
 70
     0
  9
$DIMSE2
 70
     0
  9
$DIMTAD
 70
     1
  9
$DIMZIN
 70
     8
  9
$DIMBLK
  1

  9
$DIMASO
 70
     1
  9
$DIMSHO
 70
     1
  9
$DIMPOST
  1

  9
$DIMAPOST
  1

  9
$DIMALT
 70
     0
  9
$DIMALTD
 70
     3
  9
$DIMALTF
 40
0.0393700787
  9
$DIMLFAC
 40
1.0
  9
$DIMTOFL
 70
     1
  9
$DIMTVP
 40
0.0
  9
$DIMTIX
 70
     0
  9
$DIMSOXD
 70
     0
  9
$DIMSAH
 70
     0
  9
$DIMBLK1
  1

  9
$DIMBLK2
  1

  9
$DIMSTYLE
  2
ISO-25
  9
$DIMCLRD
 70
     0
  9
$DIMCLRE
 70
     0
  9
$DIMCLRT
 70
     0
  9
$DIMTFAC
 40
1.0
  9
$DIMGAP
 40
0.625
  9
$DIMJUST
 70
     0
  9
$DIMSD1
 70
     0
  9
$DIMSD2
 70
     0
  9
$DIMTOLJ
 70
     0
  9
$DIMTZIN
 70
     8
  9
$DIMALTZ
 70
     0
  9
$DIMALTTZ
 70
     0
  9
$DIMFIT
 70
     3
  9
$DIMUPT
 70
     0
  9
$DIMUNIT
 70
     2
  9
$DIMDEC
 70
     2
  9
$DIMTDEC
 70
     2
  9
$DIMALTU
 70
     2
  9
$DIMALTTD
 70
     3
  9
$DIMTXSTY
  7
STANDARD
  9
$DIMAUNIT
 70
     0
  9
$LUNITS
 70
     2
  9
$LUPREC
 70
     4
  9
$SKETCHINC
 40
1.0
  9
$FILLETRAD
 40
0.0
  9
$AUNITS
 70
     0
  9
$AUPREC
 70
     0
  9
$MENU
  1
.
  9
$ELEVATION
 40
0.0
  9
$PELEVATION
 40
0.0
  9
$THICKNESS
 40
0.0
  9
$LIMCHECK
 70
     0
  9
$CHAMFERA
 40
0.0
  9
$CHAMFERB
 40
0.0
  9
$CHAMFERC
 40
0.0
  9
$CHAMFERD
 40
0.0
  9
$SKPOLY
 70
     0
  9
$TDCREATE
 40
2459874.612327651
  9
$TDUPDATE
 40
2459874.612332708
  9
$TDINDWG
 40
0.0000000116
  9
$TDUSRTIMER
 40
0.0000000116
  9
$USRTIMER
 70
     1
  9
$ANGBASE
 50
0.0
  9
$ANGDIR
 70
     0
  9
$PDMODE
 70
     0
  9
$PDSIZE
 40
0.0
  9
$PLINEWID
 40
0.0
  9
$COORDS
 70
     1
  9
$SPLFRAME
 70
     0
  9
$SPLINETYPE
 70
     6
  9
$SPLINESEGS
 70
     8
  9
$ATTDIA
 70
     0
  9
$ATTREQ
 70
     1
  9
$HANDLING
 70
     1
  9
$HANDSEED
  5
14C
  9
$SURFTAB1
 70
     6
  9
$SURFTAB2
 70
     6
  9
$SURFTYPE
 70
     6
  9
$SURFU
 70
     6
  9
$SURFV
 70
     6
  9
$UCSNAME
  2

  9
$UCSORG
 10
0.0
 20
0.0
 30
0.0
  9
$UCSXDIR
 10
1.0
 20
0.0
 30
0.0
  9
$UCSYDIR
 10
0.0
 20
1.0
 30
0.0
  9
$PUCSNAME
  2

  9
$PUCSORG
 10
0.0
 20
0.0
 30
0.0
  9
$PUCSXDIR
 10
1.0
 20
0.0
 30
0.0
  9
$PUCSYDIR
 10
0.0
 20
1.0
 30
0.0
  9
$USERI1
 70
     0
  9
$USERI2
 70
     0
  9
$USERI3
 70
     0
  9
$USERI4
 70
     0
  9
$USERI5
 70
     0
  9
$USERR1
 40
0.0
  9
$USERR2
 40
0.0
  9
$USERR3
 40
0.0
  9
$USERR4
 40
0.0
  9
$USERR5
 40
0.0
  9
$WORLDVIEW
 70
     1
  9
$SHADEDGE
 70
     3
  9
$SHADEDIF
 70
    70
  9
$TILEMODE
 70
     1
  9
$MAXACTVP
 70
    64
  9
$PINSBASE
 10
0.0
 20
0.0
 30
0.0
  9
$PLIMCHECK
 70
     0
  9
$PEXTMIN
 10
0.0
 20
0.0
 30
0.0
  9
$PEXTMAX
 10
0.0
 20
0.0
 30
0.0
  9
$PLIMMIN
 10
0.0
 20
0.0
  9
$PLIMMAX
 10
0.0
 20
0.0
  9
$UNITMODE
 70
     0
  9
$VISRETAIN
 70
     1
  9
$PLINEGEN
 70
     0
  9
$PSLTSCALE
 70
     1
  9
$TREEDEPTH
 70
  3020
  9
$PICKSTYLE
 70
     1
  9
$CMLSTYLE
  2
STANDARD
  9
$CMLJUST
 70
     0
  9
$CMLSCALE
 40
20.0
  9
$PROXYGRAPHICS
 70
     1
  9
$MEASUREMENT
 70
     1
  0
ENDSEC
  0
SECTION
  2
CLASSES
  0
CLASS
  1
ACDBDICTIONARYWDFLT
  2
AcDbDictionaryWithDefault
  3
ObjectDBX Classes
 90
        0
280
     0
281
     0
  0
CLASS
  1
VISUALSTYLE
  2
AcDbVisualStyle
  3
ObjectDBX Classes
 90
     4095
280
     0
281
     0
  0
CLASS
  1
MATERIAL
  2
AcDbMaterial
  3
ObjectDBX Classes
 90
     1153
280
     0
281
     0
  0
CLASS
  1
SCALE
  2
AcDbScale
  3
ObjectDBX Classes
 90
     1153
280
     0
281
     0
  0
CLASS
  1
TABLESTYLE
  2
AcDbTableStyle
  3
ObjectDBX Classes
 90
     4095
280
     0
281
     0
  0
CLASS
  1
MLEADERSTYLE
  2
AcDbMLeaderStyle
  3
ACDB_MLEADERSTYLE_CLASS
 90
     4095
280
     0
281
     0
  0
CLASS
  1
SUN
  2
AcDbSun
  3
SCENEOE
 90
     1153
280
     0
281
     0
  0
CLASS
  1
DICTIONARYVAR
  2
AcDbDictionaryVar
  3
ObjectDBX Classes
 90
        0
280
     0
281
     0
  0
CLASS
  1
XRECORD
  2
AcDbXrecord
  3
ObjectDBX Classes
 90
        0
280
     0
281
     0
  0
CLASS
  1
LWPOLYLINE
  2
AcDbPolyline
  3
ObjectDBX Classes
 90
        0
280
     0
281
     1
  0
CLASS
  1
HATCH
  2
AcDbHatch
  3
ObjectDBX Classes
 90
        0
280
     0
281
     1
  0
CLASS
  1
ACDBPLACEHOLDER
  2
AcDbPlaceHolder
  3
ObjectDBX Classes
 90
        0
280
     0
281
     0
  0
CLASS
  1
LAYOUT
  2
AcDbLayout
  3
ObjectDBX Classes
 90
        0
280
     0
281
     0
  0
ENDSEC
  0
SECTION
  2
TABLES
  0
TABLE
  2
VPORT
  5
8
102
{ACAD_XDICTIONARY
360
141
102
}
330
0
100
AcDbSymbolTable
 70
     1
  0
VPORT
  5
29
330
8
100
AcDbSymbolTableRecord
100
AcDbViewportTableRecord
  2
*ACTIVE
 70
     0
 10
0.0
 20
0.0
 11
1.0
 21
1.0
 12
344.1869158879
 22
148.5
 13
0.0
 23
0.0
 14
10.0
 24
10.0
 15
10.0
 25
10.0
 16
0.0
 26
0.0
 36
1.0
 17
0.0
 27
0.0
 37
0.0
 40
297.0
 41
1.9729729729
 42
50.0
 43
0.0
 44
0.0
 50
0.0
 51
0.0
 71
     0
 72
   100
 73
     1
 74
     3
 75
     0
 76
     0
 77
     0
 78
     0
  0
ENDTAB
  0
TABLE
  2
LTYPE
  5
5
330
0
100
AcDbSymbolTable
 70
     1
  0
LTYPE
  5
14
330
5
100
AcDbSymbolTableRecord
100
AcDbLinetypeTableRecord
  2
BYBLOCK
 70
     0
  3

 72
    65
 73
     0
 40
0.0
  0
LTYPE
  5
15
330
5
100
AcDbSymbolTableRecord
100
AcDbLinetypeTableRecord
  2
BYLAYER
 70
     0
  3

 72
    65
 73
     0
 40
0.0
  0
LTYPE
  5
16
330
5
100
AcDbSymbolTableRecord
100
AcDbLinetypeTableRecord
  2
CONTINUOUS
 70
     0
  3
Solid line
 72
    65
 73
     0
 40
0.0
  0
ENDTAB
  0
TABLE
  2
LAYER
  5
2
330
0
100
AcDbSymbolTable
 70
     3
  0
LAYER
  5
10
330
2
100
AcDbSymbolTableRecord
100
AcDbLayerTableRecord
  2
0
 70
     0
 62
     7
  6
CONTINUOUS
  0
LAYER
  5
5E
330
2
100
AcDbSymbolTableRecord
100
AcDbLayerTableRecord
  2
OUTER_LOOP
 70
     0
 62
     7
  6
CONTINUOUS
  0
LAYER
  5
A3
330
2
100
AcDbSymbolTableRecord
100
AcDbLayerTableRecord
  2
INTERIOR_LOOPS
 70
     0
 62
     7
  6
CONTINUOUS
  0
ENDTAB
  0
TABLE
  2
STYLE
  5
3
330
0
100
AcDbSymbolTable
 70
     1
  0
STYLE
  5
11
330
3
100
AcDbSymbolTableRecord
100
AcDbTextStyleTableRecord
  2
STANDARD
 70
     0
 40
0.0
 41
1.0
 50
0.0
 71
     0
 42
2.5
  3
txt
  4

  0
ENDTAB
  0
TABLE
  2
VIEW
  5
6
330
0
100
AcDbSymbolTable
 70
     0
  0
ENDTAB
  0
TABLE
  2
UCS
  5
7
330
0
100
AcDbSymbolTable
 70
     0
  0
ENDTAB
  0
TABLE
  2
APPID
  5
9
330
0
100
AcDbSymbolTable
 70
     2
  0
APPID
  5
12
330
9
100
AcDbSymbolTableRecord
100
AcDbRegAppTableRecord
  2
ACAD
 70
     0
  0
APPID
  5
14B
330
9
100
AcDbSymbolTableRecord
100
AcDbRegAppTableRecord
  2
ACAD_MLEADERVER
 70
     0
  0
ENDTAB
  0
TABLE
  2
DIMSTYLE
  5
A
330
0
100
AcDbSymbolTable
 70
     1
  0
DIMSTYLE
105
27
330
A
100
AcDbSymbolTableRecord
100
AcDbDimStyleTableRecord
  2
ISO-25
 70
     0
  3

  4

  5

  6

  7

 40
1.0
 41
2.5
 42
0.625
 43
3.75
 44
1.25
 45
0.0
 46
0.0
 47
0.0
 48
0.0
140
2.5
141
2.5
142
0.0
143
0.0393700787
144
1.0
145
0.0
146
1.0
147
0.625
 71
     0
 72
     0
 73
     0
 74
     0
 75
     0
 76
     0
 77
     1
 78
     8
170
     0
171
     3
172
     1
173
     0
174
     0
175
     0
176
     0
177
     0
178
     0
270
     2
271
     2
272
     2
273
     2
274
     3
340
11
275
     0
280
     0
281
     0
282
     0
283
     0
284
     8
285
     0
286
     0
287
     3
288
     0
  0
ENDTAB
  0
TABLE
  2
BLOCK_RECORD
  5
1
330
0
100
AcDbSymbolTable
 70
     0
  0
BLOCK_RECORD
  5
1F
330
1
100
AcDbSymbolTableRecord
100
AcDbBlockTableRecord
  2
*MODEL_SPACE
  0
BLOCK_RECORD
  5
1B
330
1
100
AcDbSymbolTableRecord
100
AcDbBlockTableRecord
  2
*PAPER_SPACE
  0
ENDTAB
  0
ENDSEC
  0
SECTION
  2
BLOCKS
  0
BLOCK
  5
20
330
1F
100
AcDbEntity
  8
0
100
AcDbBlockBegin
  2
*MODEL_SPACE
 70
     0
 10
0.0
 20
0.0
 30
0.0
  3
*MODEL_SPACE
  1

  0
ENDBLK
  5
21
330
1F
100
AcDbEntity
  8
0
100
AcDbBlockEnd
  0
BLOCK
  5
1C
330
1B
100
AcDbEntity
 67
     1
  8
0
100
AcDbBlockBegin
  2
*PAPER_SPACE
 70
     0
 10
0.0
 20
0.0
 30
0.0
  3
*PAPER_SPACE
  1

  0
ENDBLK
  5
1D
330
1B
100
AcDbEntity
 67
     1
  8
0
100
AcDbBlockEnd
  0
ENDSEC
  0
SECTION
  2
ENTITIES
  0
LINE
  5
5F
330
1F
100
AcDbEntity
  8
OUTER_LOOP
  6
CONTINUOUS
 62
     3
100
AcDbLine
 10
-180.0
 20
300.0
 30
0.0
 11
-200.0
 21
300.0
 31
0.0
  0
LINE
  5
60
330
1F
100
AcDbEntity
  8
OUTER_LOOP
  6
CONTINUOUS
 62
     3
100
AcDbLine
 10
-200.0
 20
300.0
 30
0.0
 11
-200.0
 21
294.0
 31
0.0
  0
LINE
  5
61
330
1F
100
AcDbEntity
  8
OUTER_LOOP
  6
CONTINUOUS
 62
     3
100
AcDbLine
 10
-200.0
 20
294.0
 30
0.0
 11
-284.0
 21
294.0
 31
0.0
  0
LINE
  5
62
330
1F
100
AcDbEntity
  8
OUTER_LOOP
  6
CONTINUOUS
 62
     3
100
AcDbLine
 10
-284.0
 20
294.0
 30
0.0
 11
-284.0
 21
240.0
 31
0.0
  0
LINE
  5
63
330
1F
100
AcDbEntity
  8
OUTER_LOOP
  6
CONTINUOUS
 62
     3
100
AcDbLine
 10
-284.0
 20
240.0
 30
0.0
 11
-290.0
 21
240.0
 31
0.0
  0
LINE
  5
64
330
1F
100
AcDbEntity
  8
OUTER_LOOP
  6
CONTINUOUS
 62
     3
100
AcDbLine
 10
-290.0
 20
240.0
 30
0.0
 11
-290.0
 21
220.0
 31
0.0
  0
LINE
  5
65
330
1F
100
AcDbEntity
  8
OUTER_LOOP
  6
CONTINUOUS
 62
     3
100
AcDbLine
 10
-290.0
 20
220.0
 30
0.0
 11
-284.0
 21
220.0
 31
0.0
  0
LINE
  5
66
330
1F
100
AcDbEntity
  8
OUTER_LOOP
  6
CONTINUOUS
 62
     3
100
AcDbLine
 10
-284.0
 20
220.0
 30
0.0
 11
-284.0
 21
202.0
 31
0.0
  0
LINE
  5
67
330
1F
100
AcDbEntity
  8
OUTER_LOOP
  6
CONTINUOUS
 62
     3
100
AcDbLine
 10
-284.0
 20
160.0
 30
0.0
 11
-290.0
 21
160.0
 31
0.0
  0
LINE
  5
68
330
1F
100
AcDbEntity
  8
OUTER_LOOP
  6
CONTINUOUS
 62
     3
100
AcDbLine
 10
-290.0
 20
160.0
 30
0.0
 11
-290.0
 21
140.0
 31
0.0
  0
LINE
  5
69
330
1F
100
AcDbEntity
  8
OUTER_LOOP
  6
CONTINUOUS
 62
     3
100
AcDbLine
 10
-290.0
 20
140.0
 30
0.0
 11
-284.0
 21
140.0
 31
0.0
  0
LINE
  5
6A
330
1F
100
AcDbEntity
  8
OUTER_LOOP
  6
CONTINUOUS
 62
     3
100
AcDbLine
 10
-284.0
 20
140.0
 30
0.0
 11
-284.0
 21
104.0
 31
0.0
  0
LINE
  5
6B
330
1F
100
AcDbEntity
  8
OUTER_LOOP
  6
CONTINUOUS
 62
     3
100
AcDbLine
 10
-284.0
 20
80.0
 30
0.0
 11
-290.0
 21
80.0
 31
0.0
  0
LINE
  5
6C
330
1F
100
AcDbEntity
  8
OUTER_LOOP
  6
CONTINUOUS
 62
     3
100
AcDbLine
 10
-290.0
 20
80.0
 30
0.0
 11
-290.0
 21
60.0
 31
0.0
  0
LINE
  5
6D
330
1F
100
AcDbEntity
  8
OUTER_LOOP
  6
CONTINUOUS
 62
     3
100
AcDbLine
 10
-290.0
 20
60.0
 30
0.0
 11
-284.0
 21
60.0
 31
0.0
  0
LINE
  5
6E
330
1F
100
AcDbEntity
  8
OUTER_LOOP
  6
CONTINUOUS
 62
     3
100
AcDbLine
 10
-284.0
 20
60.0
 30
0.0
 11
-284.0
 21
6.0
 31
0.0
  0
LINE
  5
6F
330
1F
100
AcDbEntity
  8
OUTER_LOOP
  6
CONTINUOUS
 62
     3
100
AcDbLine
 10
-284.0
 20
6.0
 30
0.0
 11
-200.0
 21
6.0
 31
0.0
  0
LINE
  5
70
330
1F
100
AcDbEntity
  8
OUTER_LOOP
  6
CONTINUOUS
 62
     3
100
AcDbLine
 10
-200.0
 20
6.0
 30
0.0
 11
-200.0
 21
0.0
 31
0.0
  0
LINE
  5
71
330
1F
100
AcDbEntity
  8
OUTER_LOOP
  6
CONTINUOUS
 62
     3
100
AcDbLine
 10
-200.0
 20
0.0
 30
0.0
 11
-180.0
 21
0.0
 31
0.0
  0
LINE
  5
72
330
1F
100
AcDbEntity
  8
OUTER_LOOP
  6
CONTINUOUS
 62
     3
100
AcDbLine
 10
-180.0
 20
0.0
 30
0.0
 11
-180.0
 21
6.0
 31
0.0
  0
LINE
  5
73
330
1F
100
AcDbEntity
  8
OUTER_LOOP
  6
CONTINUOUS
 62
     3
100
AcDbLine
 10
-180.0
 20
6.0
 30
0.0
 11
-100.0
 21
6.0
 31
0.0
  0
LINE
  5
74
330
1F
100
AcDbEntity
  8
OUTER_LOOP
  6
CONTINUOUS
 62
     3
100
AcDbLine
 10
-100.0
 20
6.0
 30
0.0
 11
-100.0
 21
0.0
 31
0.0
  0
LINE
  5
75
330
1F
100
AcDbEntity
  8
OUTER_LOOP
  6
CONTINUOUS
 62
     3
100
AcDbLine
 10
-100.0
 20
0.0
 30
0.0
 11
-80.0
 21
0.0
 31
0.0
  0
LINE
  5
76
330
1F
100
AcDbEntity
  8
OUTER_LOOP
  6
CONTINUOUS
 62
     3
100
AcDbLine
 10
-80.0
 20
0.0
 30
0.0
 11
-80.0
 21
6.0
 31
0.0
  0
LINE
  5
77
330
1F
100
AcDbEntity
  8
OUTER_LOOP
  6
CONTINUOUS
 62
     3
100
AcDbLine
 10
-78.0
 20
6.0
 30
0.0
 11
0.0
 21
6.0
 31
0.0
  0
LINE
  5
78
330
1F
100
AcDbEntity
  8
OUTER_LOOP
  6
CONTINUOUS
 62
     3
100
AcDbLine
 10
0.0
 20
6.0
 30
0.0
 11
0.0
 21
0.0
 31
0.0
  0
LINE
  5
79
330
1F
100
AcDbEntity
  8
OUTER_LOOP
  6
CONTINUOUS
 62
     3
100
AcDbLine
 10
0.0
 20
0.0
 30
0.0
 11
20.0
 21
0.0
 31
0.0
  0
LINE
  5
7A
330
1F
100
AcDbEntity
  8
OUTER_LOOP
  6
CONTINUOUS
 62
     3
100
AcDbLine
 10
20.0
 20
0.0
 30
0.0
 11
20.0
 21
6.0
 31
0.0
  0
LINE
  5
7B
330
1F
100
AcDbEntity
  8
OUTER_LOOP
  6
CONTINUOUS
 62
     3
100
AcDbLine
 10
20.0
 20
6.0
 30
0.0
 11
98.0
 21
6.0
 31
0.0
  0
LINE
  5
7C
330
1F
100
AcDbEntity
  8
OUTER_LOOP
  6
CONTINUOUS
 62
     3
100
AcDbLine
 10
100.0
 20
6.0
 30
0.0
 11
100.0
 21
0.0
 31
0.0
  0
LINE
  5
7D
330
1F
100
AcDbEntity
  8
OUTER_LOOP
  6
CONTINUOUS
 62
     3
100
AcDbLine
 10
100.0
 20
0.0
 30
0.0
 11
120.0
 21
0.0
 31
0.0
  0
LINE
  5
7E
330
1F
100
AcDbEntity
  8
OUTER_LOOP
  6
CONTINUOUS
 62
     3
100
AcDbLine
 10
120.0
 20
0.0
 30
0.0
 11
120.0
 21
6.0
 31
0.0
  0
LINE
  5
7F
330
1F
100
AcDbEntity
  8
OUTER_LOOP
  6
CONTINUOUS
 62
     3
100
AcDbLine
 10
120.0
 20
6.0
 30
0.0
 11
200.0
 21
6.0
 31
0.0
  0
LINE
  5
80
330
1F
100
AcDbEntity
  8
OUTER_LOOP
  6
CONTINUOUS
 62
     3
100
AcDbLine
 10
200.0
 20
6.0
 30
0.0
 11
200.0
 21
0.0
 31
0.0
  0
LINE
  5
81
330
1F
100
AcDbEntity
  8
OUTER_LOOP
  6
CONTINUOUS
 62
     3
100
AcDbLine
 10
200.0
 20
0.0
 30
0.0
 11
220.0
 21
0.0
 31
0.0
  0
LINE
  5
82
330
1F
100
AcDbEntity
  8
OUTER_LOOP
  6
CONTINUOUS
 62
     3
100
AcDbLine
 10
220.0
 20
0.0
 30
0.0
 11
220.0
 21
6.0
 31
0.0
  0
LINE
  5
83
330
1F
100
AcDbEntity
  8
OUTER_LOOP
  6
CONTINUOUS
 62
     3
100
AcDbLine
 10
220.0
 20
6.0
 30
0.0
 11
304.0
 21
6.0
 31
0.0
  0
LINE
  5
84
330
1F
100
AcDbEntity
  8
OUTER_LOOP
  6
CONTINUOUS
 62
     3
100
AcDbLine
 10
304.0
 20
6.0
 30
0.0
 11
304.0
 21
60.0
 31
0.0
  0
LINE
  5
85
330
1F
100
AcDbEntity
  8
OUTER_LOOP
  6
CONTINUOUS
 62
     3
100
AcDbLine
 10
304.0
 20
60.0
 30
0.0
 11
310.0
 21
60.0
 31
0.0
  0
LINE
  5
86
330
1F
100
AcDbEntity
  8
OUTER_LOOP
  6
CONTINUOUS
 62
     3
100
AcDbLine
 10
310.0
 20
60.0
 30
0.0
 11
310.0
 21
80.0
 31
0.0
  0
LINE
  5
87
330
1F
100
AcDbEntity
  8
OUTER_LOOP
  6
CONTINUOUS
 62
     3
100
AcDbLine
 10
310.0
 20
80.0
 30
0.0
 11
304.0
 21
80.0
 31
0.0
  0
LINE
  5
88
330
1F
100
AcDbEntity
  8
OUTER_LOOP
  6
CONTINUOUS
 62
     3
100
AcDbLine
 10
304.0
 20
80.0
 30
0.0
 11
304.0
 21
98.0
 31
0.0
  0
LINE
  5
89
330
1F
100
AcDbEntity
  8
OUTER_LOOP
  6
CONTINUOUS
 62
     3
100
AcDbLine
 10
304.0
 20
140.0
 30
0.0
 11
310.0
 21
140.0
 31
0.0
  0
LINE
  5
8A
330
1F
100
AcDbEntity
  8
OUTER_LOOP
  6
CONTINUOUS
 62
     3
100
AcDbLine
 10
310.0
 20
140.0
 30
0.0
 11
310.0
 21
160.0
 31
0.0
  0
LINE
  5
8B
330
1F
100
AcDbEntity
  8
OUTER_LOOP
  6
CONTINUOUS
 62
     3
100
AcDbLine
 10
310.0
 20
160.0
 30
0.0
 11
304.0
 21
160.0
 31
0.0
  0
LINE
  5
8C
330
1F
100
AcDbEntity
  8
OUTER_LOOP
  6
CONTINUOUS
 62
     3
100
AcDbLine
 10
304.0
 20
160.0
 30
0.0
 11
304.0
 21
196.0
 31
0.0
  0
LINE
  5
8D
330
1F
100
AcDbEntity
  8
OUTER_LOOP
  6
CONTINUOUS
 62
     3
100
AcDbLine
 10
304.0
 20
220.0
 30
0.0
 11
310.0
 21
220.0
 31
0.0
  0
LINE
  5
8E
330
1F
100
AcDbEntity
  8
OUTER_LOOP
  6
CONTINUOUS
 62
     3
100
AcDbLine
 10
310.0
 20
220.0
 30
0.0
 11
310.0
 21
240.0
 31
0.0
  0
LINE
  5
8F
330
1F
100
AcDbEntity
  8
OUTER_LOOP
  6
CONTINUOUS
 62
     3
100
AcDbLine
 10
310.0
 20
240.0
 30
0.0
 11
304.0
 21
240.0
 31
0.0
  0
LINE
  5
90
330
1F
100
AcDbEntity
  8
OUTER_LOOP
  6
CONTINUOUS
 62
     3
100
AcDbLine
 10
304.0
 20
240.0
 30
0.0
 11
304.0
 21
294.0
 31
0.0
  0
LINE
  5
91
330
1F
100
AcDbEntity
  8
OUTER_LOOP
  6
CONTINUOUS
 62
     3
100
AcDbLine
 10
304.0
 20
294.0
 30
0.0
 11
220.0
 21
294.0
 31
0.0
  0
LINE
  5
92
330
1F
100
AcDbEntity
  8
OUTER_LOOP
  6
CONTINUOUS
 62
     3
100
AcDbLine
 10
220.0
 20
294.0
 30
0.0
 11
220.0
 21
300.0
 31
0.0
  0
LINE
  5
93
330
1F
100
AcDbEntity
  8
OUTER_LOOP
  6
CONTINUOUS
 62
     3
100
AcDbLine
 10
220.0
 20
300.0
 30
0.0
 11
200.0
 21
300.0
 31
0.0
  0
LINE
  5
94
330
1F
100
AcDbEntity
  8
OUTER_LOOP
  6
CONTINUOUS
 62
     3
100
AcDbLine
 10
200.0
 20
300.0
 30
0.0
 11
200.0
 21
294.0
 31
0.0
  0
LINE
  5
95
330
1F
100
AcDbEntity
  8
OUTER_LOOP
  6
CONTINUOUS
 62
     3
100
AcDbLine
 10
200.0
 20
294.0
 30
0.0
 11
120.0
 21
294.0
 31
0.0
  0
LINE
  5
96
330
1F
100
AcDbEntity
  8
OUTER_LOOP
  6
CONTINUOUS
 62
     3
100
AcDbLine
 10
120.0
 20
294.0
 30
0.0
 11
120.0
 21
300.0
 31
0.0
  0
LINE
  5
97
330
1F
100
AcDbEntity
  8
OUTER_LOOP
  6
CONTINUOUS
 62
     3
100
AcDbLine
 10
120.0
 20
300.0
 30
0.0
 11
100.0
 21
300.0
 31
0.0
  0
LINE
  5
98
330
1F
100
AcDbEntity
  8
OUTER_LOOP
  6
CONTINUOUS
 62
     3
100
AcDbLine
 10
100.0
 20
300.0
 30
0.0
 11
100.0
 21
294.0
 31
0.0
  0
LINE
  5
99
330
1F
100
AcDbEntity
  8
OUTER_LOOP
  6
CONTINUOUS
 62
     3
100
AcDbLine
 10
98.0
 20
294.0
 30
0.0
 11
20.0
 21
294.0
 31
0.0
  0
LINE
  5
9A
330
1F
100
AcDbEntity
  8
OUTER_LOOP
  6
CONTINUOUS
 62
     3
100
AcDbLine
 10
20.0
 20
294.0
 30
0.0
 11
20.0
 21
300.0
 31
0.0
  0
LINE
  5
9B
330
1F
100
AcDbEntity
  8
OUTER_LOOP
  6
CONTINUOUS
 62
     3
100
AcDbLine
 10
20.0
 20
300.0
 30
0.0
 11
0.0
 21
300.0
 31
0.0
  0
LINE
  5
9C
330
1F
100
AcDbEntity
  8
OUTER_LOOP
  6
CONTINUOUS
 62
     3
100
AcDbLine
 10
0.0
 20
300.0
 30
0.0
 11
0.0
 21
294.0
 31
0.0
  0
LINE
  5
9D
330
1F
100
AcDbEntity
  8
OUTER_LOOP
  6
CONTINUOUS
 62
     3
100
AcDbLine
 10
0.0
 20
294.0
 30
0.0
 11
-78.0
 21
294.0
 31
0.0
  0
LINE
  5
9E
330
1F
100
AcDbEntity
  8
OUTER_LOOP
  6
CONTINUOUS
 62
     3
100
AcDbLine
 10
-80.0
 20
294.0
 30
0.0
 11
-80.0
 21
300.0
 31
0.0
  0
LINE
  5
9F
330
1F
100
AcDbEntity
  8
OUTER_LOOP
  6
CONTINUOUS
 62
     3
100
AcDbLine
 10
-80.0
 20
300.0
 30
0.0
 11
-100.0
 21
300.0
 31
0.0
  0
LINE
  5
A0
330
1F
100
AcDbEntity
  8
OUTER_LOOP
  6
CONTINUOUS
 62
     3
100
AcDbLine
 10
-100.0
 20
300.0
 30
0.0
 11
-100.0
 21
294.0
 31
0.0
  0
LINE
  5
A1
330
1F
100
AcDbEntity
  8
OUTER_LOOP
  6
CONTINUOUS
 62
     3
100
AcDbLine
 10
-100.0
 20
294.0
 30
0.0
 11
-180.0
 21
294.0
 31
0.0
  0
LINE
  5
A2
330
1F
100
AcDbEntity
  8
OUTER_LOOP
  6
CONTINUOUS
 62
     3
100
AcDbLine
 10
-180.0
 20
294.0
 30
0.0
 11
-180.0
 21
300.0
 31
0.0
  0
CIRCLE
  5
A4
330
1F
100
AcDbEntity
  8
INTERIOR_LOOPS
  6
CONTINUOUS
 62
     3
100
AcDbCircle
 10
217.0
 20
52.0
 30
0.0
 40
8.0
  0
CIRCLE
  5
A5
330
1F
100
AcDbEntity
  8
INTERIOR_LOOPS
  6
CONTINUOUS
 62
     3
100
AcDbCircle
 10
191.0
 20
52.0
 30
0.0
 40
8.0
  0
CIRCLE
  5
A6
330
1F
100
AcDbEntity
  8
INTERIOR_LOOPS
  6
CONTINUOUS
 62
     3
100
AcDbCircle
 10
217.0
 20
150.0
 30
0.0
 40
8.0
  0
CIRCLE
  5
A7
330
1F
100
AcDbEntity
  8
INTERIOR_LOOPS
  6
CONTINUOUS
 62
     3
100
AcDbCircle
 10
191.0
 20
150.0
 30
0.0
 40
8.0
  0
CIRCLE
  5
A8
330
1F
100
AcDbEntity
  8
INTERIOR_LOOPS
  6
CONTINUOUS
 62
     3
100
AcDbCircle
 10
217.0
 20
248.0
 30
0.0
 40
8.0
  0
CIRCLE
  5
A9
330
1F
100
AcDbEntity
  8
INTERIOR_LOOPS
  6
CONTINUOUS
 62
     3
100
AcDbCircle
 10
191.0
 20
248.0
 30
0.0
 40
8.0
  0
CIRCLE
  5
AA
330
1F
100
AcDbEntity
  8
INTERIOR_LOOPS
  6
CONTINUOUS
 62
     3
100
AcDbCircle
 10
-171.0
 20
52.0
 30
0.0
 40
8.0
  0
CIRCLE
  5
AB
330
1F
100
AcDbEntity
  8
INTERIOR_LOOPS
  6
CONTINUOUS
 62
     3
100
AcDbCircle
 10
-197.0
 20
52.0
 30
0.0
 40
8.0
  0
CIRCLE
  5
AC
330
1F
100
AcDbEntity
  8
INTERIOR_LOOPS
  6
CONTINUOUS
 62
     3
100
AcDbCircle
 10
-171.0
 20
150.0
 30
0.0
 40
8.0
  0
CIRCLE
  5
AD
330
1F
100
AcDbEntity
  8
INTERIOR_LOOPS
  6
CONTINUOUS
 62
     3
100
AcDbCircle
 10
-197.0
 20
150.0
 30
0.0
 40
8.0
  0
CIRCLE
  5
AE
330
1F
100
AcDbEntity
  8
INTERIOR_LOOPS
  6
CONTINUOUS
 62
     3
100
AcDbCircle
 10
-171.0
 20
248.0
 30
0.0
 40
8.0
  0
CIRCLE
  5
AF
330
1F
100
AcDbEntity
  8
INTERIOR_LOOPS
  6
CONTINUOUS
 62
     3
100
AcDbCircle
 10
-197.0
 20
248.0
 30
0.0
 40
8.0
  0
LINE
  5
B0
330
1F
100
AcDbEntity
  8
OUTER_LOOP
  6
CONTINUOUS
 62
     3
100
AcDbLine
 10
-284.0
 20
196.0
 30
0.0
 11
-284.0
 21
160.0
 31
0.0
  0
LINE
  5
B1
330
1F
100
AcDbEntity
  8
OUTER_LOOP
  6
CONTINUOUS
 62
     3
100
AcDbLine
 10
-284.0
 20
98.0
 30
0.0
 11
-284.0
 21
80.0
 31
0.0
  0
LINE
  5
B2
330
1F
100
AcDbEntity
  8
OUTER_LOOP
  6
CONTINUOUS
 62
     3
100
AcDbLine
 10
-80.0
 20
6.0
 30
0.0
 11
-78.0
 21
6.0
 31
0.0
  0
LINE
  5
B3
330
1F
100
AcDbEntity
  8
OUTER_LOOP
  6
CONTINUOUS
 62
     3
100
AcDbLine
 10
-284.0
 20
104.0
 30
0.0
 11
-284.0
 21
98.0
 31
0.0
  0
LINE
  5
B4
330
1F
100
AcDbEntity
  8
OUTER_LOOP
  6
CONTINUOUS
 62
     3
100
AcDbLine
 10
-78.0
 20
294.0
 30
0.0
 11
-80.0
 21
294.0
 31
0.0
  0
LINE
  5
B5
330
1F
100
AcDbEntity
  8
OUTER_LOOP
  6
CONTINUOUS
 62
     3
100
AcDbLine
 10
-284.0
 20
202.0
 30
0.0
 11
-284.0
 21
196.0
 31
0.0
  0
LINE
  5
B6
330
1F
100
AcDbEntity
  8
OUTER_LOOP
  6
CONTINUOUS
 62
     3
100
AcDbLine
 10
-84.0
 20
104.0
 30
0.0
 11
-284.0
 21
104.0
 31
0.0
  0
LINE
  5
B7
330
1F
100
AcDbEntity
  8
OUTER_LOOP
  6
CONTINUOUS
 62
     3
100
AcDbLine
 10
-284.0
 20
98.0
 30
0.0
 11
-84.0
 21
98.0
 31
0.0
  0
LINE
  5
B8
330
1F
100
AcDbEntity
  8
OUTER_LOOP
  6
CONTINUOUS
 62
     3
100
AcDbLine
 10
-84.0
 20
98.0
 30
0.0
 11
-84.0
 21
6.0
 31
0.0
  0
LINE
  5
B9
330
1F
100
AcDbEntity
  8
OUTER_LOOP
  6
CONTINUOUS
 62
     3
100
AcDbLine
 10
-84.0
 20
6.0
 30
0.0
 11
-80.0
 21
6.0
 31
0.0
  0
LINE
  5
BA
330
1F
100
AcDbEntity
  8
OUTER_LOOP
  6
CONTINUOUS
 62
     3
100
AcDbLine
 10
-78.0
 20
6.0
 30
0.0
 11
-78.0
 21
294.0
 31
0.0
  0
LINE
  5
BB
330
1F
100
AcDbEntity
  8
OUTER_LOOP
  6
CONTINUOUS
 62
     3
100
AcDbLine
 10
-80.0
 20
294.0
 30
0.0
 11
-84.0
 21
294.0
 31
0.0
  0
LINE
  5
BC
330
1F
100
AcDbEntity
  8
OUTER_LOOP
  6
CONTINUOUS
 62
     3
100
AcDbLine
 10
-84.0
 20
294.0
 30
0.0
 11
-84.0
 21
202.0
 31
0.0
  0
LINE
  5
BD
330
1F
100
AcDbEntity
  8
OUTER_LOOP
  6
CONTINUOUS
 62
     3
100
AcDbLine
 10
-84.0
 20
202.0
 30
0.0
 11
-284.0
 21
202.0
 31
0.0
  0
LINE
  5
BE
330
1F
100
AcDbEntity
  8
OUTER_LOOP
  6
CONTINUOUS
 62
     3
100
AcDbLine
 10
-284.0
 20
196.0
 30
0.0
 11
-84.0
 21
196.0
 31
0.0
  0
LINE
  5
BF
330
1F
100
AcDbEntity
  8
OUTER_LOOP
  6
CONTINUOUS
 62
     3
100
AcDbLine
 10
-84.0
 20
196.0
 30
0.0
 11
-84.0
 21
104.0
 31
0.0
  0
LINE
  5
C0
330
1F
100
AcDbEntity
  8
OUTER_LOOP
  6
CONTINUOUS
 62
     3
100
AcDbLine
 10
304.0
 20
202.0
 30
0.0
 11
304.0
 21
220.0
 31
0.0
  0
LINE
  5
C1
330
1F
100
AcDbEntity
  8
OUTER_LOOP
  6
CONTINUOUS
 62
     3
100
AcDbLine
 10
304.0
 20
104.0
 30
0.0
 11
304.0
 21
140.0
 31
0.0
  0
LINE
  5
C2
330
1F
100
AcDbEntity
  8
OUTER_LOOP
  6
CONTINUOUS
 62
     3
100
AcDbLine
 10
100.0
 20
294.0
 30
0.0
 11
98.0
 21
294.0
 31
0.0
  0
LINE
  5
C3
330
1F
100
AcDbEntity
  8
OUTER_LOOP
  6
CONTINUOUS
 62
     3
100
AcDbLine
 10
98.0
 20
6.0
 30
0.0
 11
100.0
 21
6.0
 31
0.0
  0
LINE
  5
C4
330
1F
100
AcDbEntity
  8
OUTER_LOOP
  6
CONTINUOUS
 62
     3
100
AcDbLine
 10
304.0
 20
98.0
 30
0.0
 11
304.0
 21
104.0
 31
0.0
  0
LINE
  5
C5
330
1F
100
AcDbEntity
  8
OUTER_LOOP
  6
CONTINUOUS
 62
     3
100
AcDbLine
 10
304.0
 20
196.0
 30
0.0
 11
304.0
 21
202.0
 31
0.0
  0
LINE
  5
C6
330
1F
100
AcDbEntity
  8
OUTER_LOOP
  6
CONTINUOUS
 62
     3
100
AcDbLine
 10
104.0
 20
202.0
 30
0.0
 11
104.0
 21
294.0
 31
0.0
  0
LINE
  5
C7
330
1F
100
AcDbEntity
  8
OUTER_LOOP
  6
CONTINUOUS
 62
     3
100
AcDbLine
 10
104.0
 20
294.0
 30
0.0
 11
100.0
 21
294.0
 31
0.0
  0
LINE
  5
C8
330
1F
100
AcDbEntity
  8
OUTER_LOOP
  6
CONTINUOUS
 62
     3
100
AcDbLine
 10
98.0
 20
294.0
 30
0.0
 11
98.0
 21
6.0
 31
0.0
  0
LINE
  5
C9
330
1F
100
AcDbEntity
  8
OUTER_LOOP
  6
CONTINUOUS
 62
     3
100
AcDbLine
 10
100.0
 20
6.0
 30
0.0
 11
104.0
 21
6.0
 31
0.0
  0
LINE
  5
CA
330
1F
100
AcDbEntity
  8
OUTER_LOOP
  6
CONTINUOUS
 62
     3
100
AcDbLine
 10
104.0
 20
6.0
 30
0.0
 11
104.0
 21
98.0
 31
0.0
  0
LINE
  5
CB
330
1F
100
AcDbEntity
  8
OUTER_LOOP
  6
CONTINUOUS
 62
     3
100
AcDbLine
 10
104.0
 20
98.0
 30
0.0
 11
304.0
 21
98.0
 31
0.0
  0
LINE
  5
CC
330
1F
100
AcDbEntity
  8
OUTER_LOOP
  6
CONTINUOUS
 62
     3
100
AcDbLine
 10
304.0
 20
104.0
 30
0.0
 11
104.0
 21
104.0
 31
0.0
  0
LINE
  5
CD
330
1F
100
AcDbEntity
  8
OUTER_LOOP
  6
CONTINUOUS
 62
     3
100
AcDbLine
 10
104.0
 20
104.0
 30
0.0
 11
104.0
 21
196.0
 31
0.0
  0
LINE
  5
CE
330
1F
100
AcDbEntity
  8
OUTER_LOOP
  6
CONTINUOUS
 62
     3
100
AcDbLine
 10
104.0
 20
196.0
 30
0.0
 11
304.0
 21
196.0
 31
0.0
  0
LINE
  5
CF
330
1F
100
AcDbEntity
  8
OUTER_LOOP
  6
CONTINUOUS
 62
     3
100
AcDbLine
 10
304.0
 20
202.0
 30
0.0
 11
104.0
 21
202.0
 31
0.0
  0
ARC
  5
D0
330
1F
100
AcDbEntity
  8
INTERIOR_LOOPS
  6
CONTINUOUS
 62
     3
100
AcDbCircle
 10
117.1932592313
 20
243.4722623932
 30
0.0
 40
9.945140708795728
100
AcDbArc
 50
270.3430333698
 51
277.0397386031
  0
ARC
  5
D1
330
1F
100
AcDbEntity
  8
INTERIOR_LOOPS
  6
CONTINUOUS
 62
     3
100
AcDbCircle
 10
117.0034866617
 20
237.6285215657
 30
0.0
 40
4.10879259724763
100
AcDbArc
 50
243.9013899118
 51
273.4787451401
  0
ARC
  5
D2
330
1F
100
AcDbEntity
  8
INTERIOR_LOOPS
  6
CONTINUOUS
 62
     3
100
AcDbCircle
 10
116.0583773533
 20
235.142147266
 30
0.0
 40
1.480584001198575
100
AcDbArc
 50
210.6465048299
 51
234.3743893261
  0
SPLINE
  5
D3
330
1F
100
AcDbEntity
  8
INTERIOR_LOOPS
  6
CONTINUOUS
 62
     3
100
AcDbSpline
210
0.0
220
0.0
230
1.0
 70
     8
 71
     3
 72
    25
 73
    21
 74
     0
 42
0.0000000003129141
 43
0.0000000001
 40
0.0
 40
0.0
 40
0.0
 40
0.0
 40
0.0173691095976168
 40
0.0173691095976168
 40
0.0173691095976168
 40
0.8331687676374515
 40
0.8331687676374515
 40
0.8331687676374515
 40
0.8504768975893917
 40
0.8504768975893917
 40
0.8504768975893917
 40
0.8688891862744
 40
0.8688891862744
 40
0.8688891862744
 40
0.9029779978430553
 40
0.9370668094117117
 40
0.9370668094117117
 40
0.9685334047058549
 40
0.9685334047058549
 40
1.0
 40
1.0
 40
1.0
 40
1.0
 10
114.784588631264
 20
234.3874345549739
 30
0.0
 10
114.672397157816
 20
234.5370231862379
 30
0.0
 10
114.635
 20
234.7240089753179
 30
0.0
 10
114.635
 20
234.9109947643979
 30
0.0
 10
114.635
 20
243.5871353777113
 30
0.0
 10
114.635
 20
252.2632759910247
 30
0.0
 10
114.635
 20
260.9394166043381
 30
0.0
 10
114.635
 20
261.1264023934181
 30
0.0
 10
114.672397157816
 20
261.2759910246821
 30
0.0
 10
114.784588631264
 20
261.4629768137622
 30
0.0
 10
114.8703821109596
 20
261.6059659465881
 30
0.0
 10
115.0089715781601
 20
261.7621540762902
 30
0.0
 10
115.1959573672401
 20
261.8743455497383
 30
0.0
 10
115.4269398125743
 20
262.0129350169387
 30
0.0
 10
115.9439005235602
 20
262.2483171278983
 30
0.0
 10
116.7666379955124
 20
262.3231114435303
 30
0.0
 10
117.7015669409125
 20
262.3231114435303
 30
0.0
 10
118.0755385190726
 20
262.2857142857143
 30
0.0
 10
118.7486873597607
 20
262.1361256544503
 30
0.0
 10
119.0478646222887
 20
262.0613313388183
 30
0.0
 10
119.2348504113688
 20
261.9117427075543
 30
0.0
  0
ARC
  5
D4
330
1F
100
AcDbEntity
  8
INTERIOR_LOOPS
  6
CONTINUOUS
 62
     3
100
AcDbCircle
 10
118.8114005205
 20
260.8339474361
 30
0.0
 40
1.157995016026631
100
AcDbArc
 50
35.1346794494
 51
68.5508673759
  0
SPLINE
  5
D5
330
1F
100
AcDbEntity
  8
INTERIOR_LOOPS
  6
CONTINUOUS
 62
     3
100
AcDbSpline
210
0.0
220
0.0
230
1.0
 70
     8
 71
     3
 72
    11
 73
     7
 74
     0
 42
0.0000000009092176
 43
0.0000000001
 40
0.0
 40
0.0
 40
0.0
 40
0.0
 40
0.053796697297585
 40
0.053796697297585
 40
0.053796697297585
 40
1.0
 40
1.0
 40
1.0
 40
1.0
 10
119.7584106207928
 20
261.5003739715782
 30
0.0
 10
119.8706020942409
 20
261.3507853403142
 30
0.0
 10
119.9079992520569
 20
261.1637995512341
 30
0.0
 10
119.9079992520569
 20
260.9394166043381
 30
0.0
 10
119.9079992520569
 20
257.4739466467215
 30
0.0
 10
119.9079992520569
 20
254.008476689105
 30
0.0
 10
119.9079992520569
 20
250.5430067314884
 30
0.0
  0
LINE
  5
D6
330
1F
100
AcDbEntity
  8
INTERIOR_LOOPS
  6
CONTINUOUS
 62
     3
100
AcDbLine
 10
119.9079992521
 20
250.5430067315
 30
0.0
 11
157.6791286462
 21
250.5430067315
 31
0.0
  0
SPLINE
  5
D7
330
1F
100
AcDbEntity
  8
INTERIOR_LOOPS
  6
CONTINUOUS
 62
     3
100
AcDbSpline
210
0.0
220
0.0
230
1.0
 70
     8
 71
     3
 72
    11
 73
     7
 74
     0
 42
0.0000000008045153
 43
0.0000000001
 40
0.0
 40
0.0
 40
0.0
 40
0.0
 40
0.8964181439573432
 40
0.8964181439573432
 40
0.8964181439573432
 40
1.0
 40
1.0
 40
1.0
 40
1.0
 10
157.6791286462229
 20
250.5430067314884
 30
0.0
 10
155.7843393168786
 20
253.7342308651209
 30
0.0
 10
153.8895499875343
 20
256.9254549987535
 30
0.0
 10
151.99476065819
 20
260.116679132386
 30
0.0
 10
151.7131074067974
 20
260.5910425031524
 30
0.0
 10
151.5833919222139
 20
261.0142109199701
 30
0.0
 10
151.5459947643979
 20
261.3133881824982
 30
0.0
  0
ARC
  5
D8
330
1F
100
AcDbEntity
  8
INTERIOR_LOOPS
  6
CONTINUOUS
 62
     3
100
AcDbCircle
 10
152.3081865608
 20
261.5239459226
 30
0.0
 40
0.790740726404905
100
AcDbArc
 50
140.7797120942
 51
195.4429718266
  0
SPLINE
  5
D9
330
1F
100
AcDbEntity
  8
INTERIOR_LOOPS
  6
CONTINUOUS
 62
     3
100
AcDbSpline
210
0.0
220
0.0
230
1.0
 70
     8
 71
     3
 72
    26
 73
    22
 74
     0
 42
0.000000000508242
 43
0.0000000001
 40
0.0
 40
0.0
 40
0.0
 40
0.0
 40
0.0459108738637192
 40
0.0459108738637192
 40
0.0459108738637192
 40
0.1115670250706393
 40
0.1115670250706393
 40
0.1640919460361767
 40
0.1640919460361767
 40
0.2166168670017101
 40
0.2166168670017101
 40
0.2166168670017101
 40
0.2516980803345381
 40
0.2516980803345381
 40
0.2867792936673662
 40
0.2867792936673662
 40
0.2867792936673662
 40
0.9769721457232857
 40
0.9769721457232857
 40
0.9769721457232857
 40
1.0
 40
1.0
 40
1.0
 40
1.0
 10
151.6955833956619
 20
262.0239341810023
 30
0.0
 10
151.882569184742
 20
262.1735228122663
 30
0.0
 10
152.144349289454
 20
262.3231114435303
 30
0.0
 10
152.5183208676141
 20
262.3605086013463
 30
0.0
 10
152.9330220235935
 20
262.4019787169443
 30
0.0
 10
153.4158526551982
 20
262.4727000747943
 30
0.0
 10
154.4255759162304
 20
262.4727000747943
 30
0.0
 10
154.7995474943905
 20
262.4353029169783
 30
0.0
 10
155.3979020194465
 20
262.3605086013463
 30
0.0
 10
155.6596821241586
 20
262.3231114435303
 30
0.0
 10
155.8466679132386
 20
262.2483171278983
 30
0.0
 10
156.0658926314703
 20
262.1606272406056
 30
0.0
 10
156.2580366492147
 20
262.0613313388183
 30
0.0
 10
156.5572139117427
 20
261.7621540762902
 30
0.0
 10
156.7068025430067
 20
261.5751682872102
 30
0.0
 10
156.8563911742708
 20
261.3507853403142
 30
0.0
 10
159.3629596494256
 20
257.5909326275818
 30
0.0
 10
161.7429531288956
 20
253.746696584393
 30
0.0
 10
164.1862341062079
 20
249.9446522064324
 30
0.0
 10
164.2591193148722
 20
249.8312338970313
 30
0.0
 10
164.298425579656
 20
249.6828721017203
 30
0.0
 10
164.373219895288
 20
249.5332834704563
 30
0.0
  0
ARC
  5
DA
330
1F
100
AcDbEntity
  8
INTERIOR_LOOPS
  6
CONTINUOUS
 62
     3
100
AcDbCircle
 10
170.2010738889
 20
250.7869540343
 30
0.0
 40
5.961172036909224
100
AcDbArc
 50
192.1402883445
 51
197.7225460118
  0
ARC
  5
DB
330
1F
100
AcDbEntity
  8
INTERIOR_LOOPS
  6
CONTINUOUS
 62
     3
100
AcDbCircle
 10
159.1337246044
 20
248.0676409054
 30
0.0
 40
5.464492732781434
100
AcDbArc
 50
0.8592627104
 51
9.5295951051
  0
SPLINE
  5
DC
330
1F
100
AcDbEntity
  8
INTERIOR_LOOPS
  6
CONTINUOUS
 62
     3
100
AcDbSpline
210
0.0
220
0.0
230
1.0
 70
     8
 71
     3
 72
    13
 73
     9
 74
     0
 42
0.0000000026977434
 43
0.0000000001
 40
0.0
 40
0.0
 40
0.0
 40
0.0
 40
0.3015902784828923
 40
0.3015902784828923
 40
0.7288431730003142
 40
0.7288431730003142
 40
0.7288431730003142
 40
1.0
 40
1.0
 40
1.0
 40
1.0
 10
164.597602842184
 20
248.1495886312641
 30
0.0
 10
164.635
 20
247.850411368736
 30
0.0
 10
164.635
 20
247.43904263276
 30
0.0
 10
164.635
 20
246.3545250560958
 30
0.0
 10
164.597602842184
 20
245.8683620044877
 30
0.0
 10
164.560205684368
 20
245.4569932685116
 30
0.0
 10
164.5225019924715
 20
245.0422526576505
 30
0.0
 10
164.44801421092
 20
244.7090501121915
 30
0.0
 10
164.335822737472
 20
244.4846671652955
 30
0.0
  0
SPLINE
  5
DD
330
1F
100
AcDbEntity
  8
INTERIOR_LOOPS
  6
CONTINUOUS
 62
     3
100
AcDbSpline
210
0.0
220
0.0
230
1.0
 70
     8
 71
     3
 72
    13
 73
     9
 74
     0
 42
0.0000000002236923
 43
0.0000000001
 40
0.0
 40
0.0
 40
0.0
 40
0.0
 40
0.0116672660073169
 40
0.0116672660073169
 40
0.023334532014632
 40
0.023334532014632
 40
0.023334532014632
 40
1.0
 40
1.0
 40
1.0
 40
1.0
 10
164.335822737472
 20
244.4846671652955
 30
0.0
 10
164.26102842184
 20
244.2602842183994
 30
0.0
 10
164.1488369483919
 20
244.1106955871354
 30
0.0
 10
163.8496596858639
 20
243.9611069558714
 30
0.0
 10
163.7000710545999
 20
243.9237097980554
 30
0.0
 10
163.5504824233358
 20
243.9237097980554
 30
0.0
 10
149.0029880329095
 20
243.9237097980554
 30
0.0
 10
134.4554936424832
 20
243.9237097980554
 30
0.0
 10
119.9079992520569
 20
243.9237097980554
 30
0.0
  0
SPLINE
  5
DE
330
1F
100
AcDbEntity
  8
INTERIOR_LOOPS
  6
CONTINUOUS
 62
     3
100
AcDbSpline
210
0.0
220
0.0
230
1.0
 70
     8
 71
     3
 72
    11
 73
     7
 74
     0
 42
0.0000000010367155
 43
0.0000000001
 40
0.0
 40
0.0
 40
0.0
 40
0.0
 40
0.935146067391124
 40
0.935146067391124
 40
0.935146067391124
 40
1.0
 40
1.0
 40
1.0
 40
1.0
 10
119.9079992520569
 20
243.9237097980554
 30
0.0
 10
119.9079992520569
 20
240.9194714535029
 30
0.0
 10
119.9079992520569
 20
237.9152331089504
 30
0.0
 10
119.9079992520569
 20
234.9109947643979
 30
0.0
 10
119.9079992520569
 20
234.6866118175019
 30
0.0
 10
119.8706020942409
 20
234.4996260284219
 30
0.0
 10
119.7584106207928
 20
234.3126402393418
 30
0.0
  0
ARC
  5
DF
330
1F
100
AcDbEntity
  8
INTERIOR_LOOPS
  6
CONTINUOUS
 62
     3
100
AcDbCircle
 10
118.5906445557
 20
235.2600289119
 30
0.0
 40
1.503736306545988
100
AcDbArc
 50
295.3662831026
 51
320.9481700721
  0
ARC
  5
E0
330
1F
100
AcDbEntity
  8
INTERIOR_LOOPS
  6
CONTINUOUS
 62
     3
100
AcDbCircle
 10
118.1471731499
 20
235.6115313173
 30
0.0
 40
2.026827682977963
100
AcDbArc
 50
277.5109971691
 51
302.4552158747
  0
LINE
  5
E1
330
1F
100
AcDbEntity
  8
INTERIOR_LOOPS
  6
CONTINUOUS
 62
     3
100
AcDbLine
 10
120.5040319667
 20
157.9740522243
 30
0.0
 11
120.5037086327
 21
133.4382432078
 31
0.0
  0
LINE
  5
E2
330
1F
100
AcDbEntity
  8
INTERIOR_LOOPS
  6
CONTINUOUS
 62
     3
100
AcDbLine
 10
120.5037086327
 20
133.4382432078
 30
0.0
 11
114.635008368
 21
133.4383205458
 31
0.0
  0
LINE
  5
E3
330
1F
100
AcDbEntity
  8
INTERIOR_LOOPS
  6
CONTINUOUS
 62
     3
100
AcDbLine
 10
114.635008368
 20
133.4383205458
 30
0.0
 11
114.635444432
 21
166.5285062194
 31
0.0
  0
SPLINE
  5
E4
330
1F
100
AcDbEntity
  8
INTERIOR_LOOPS
  6
CONTINUOUS
 62
     3
100
AcDbSpline
210
0.0
220
0.0
230
1.0
 70
     8
 71
     3
 72
    30
 73
    26
 74
     0
 42
0.0000000001287027
 43
0.0000000001
 40
0.0
 40
0.0
 40
0.0
 40
0.0
 40
0.0565458834233291
 40
0.0565458834233291
 40
0.0565458834233291
 40
0.1585996780121102
 40
0.1585996780121102
 40
0.1585996780121102
 40
0.3022798011537963
 40
0.3022798011537963
 40
0.3022798011537963
 40
0.5015520504503446
 40
0.5015520504503446
 40
0.5015520504503446
 40
0.5967643911255534
 40
0.5967643911255534
 40
0.6960572606868418
 40
0.6960572606868418
 40
0.6960572606868418
 40
0.7920717445358078
 40
0.7920717445358078
 40
0.8949444058025564
 40
0.8949444058025564
 40
0.8949444058025564
 40
1.0
 40
1.0
 40
1.0
 40
1.0
 10
114.635444431966
 20
166.5285062193655
 30
0.0
 10
116.0943308104217
 20
166.5616434927715
 30
0.0
 10
117.5200571947038
 20
166.3295292137484
 30
0.0
 10
118.8794666492037
 20
165.7990073205633
 30
0.0
 10
121.1168426641473
 20
164.9258509986871
 30
0.0
 10
123.3224086332018
 20
163.6106198586162
 30
0.0
 10
125.5107126400219
 20
161.7206705964798
 30
0.0
 10
127.6826151572445
 20
159.844886634533
 30
0.0
 10
130.1857190921295
 20
157.1781686703366
 30
0.0
 10
133.0371320993505
 20
153.6966987332422
 30
0.0
 10
137.4731450172671
 20
148.2804908478259
 30
0.0
 10
140.9614155607187
 20
144.6117136692829
 30
0.0
 10
143.5807536133221
 20
142.6886022282838
 30
0.0
 10
146.1785479172368
 20
140.7813081536395
 30
0.0
 10
148.6205033977011
 20
139.8039204293675
 30
0.0
 10
153.3618827076342
 20
139.8038579472566
 30
0.0
 10
155.4175969856114
 20
140.6658998225531
 30
0.0
 10
157.0754450768599
 20
142.4231724052168
 30
0.0
 10
158.7323563543442
 20
144.1794519915068
 30
0.0
 10
159.5953918453237
 20
146.4350755371153
 30
0.0
 10
159.5954678725075
 20
152.2043063058451
 30
0.0
 10
158.7002734309808
 20
154.5584295087979
 30
0.0
 10
156.9430025960684
 20
156.3489035947298
 30
0.0
 10
155.1860387080268
 20
158.1390649340965
 30
0.0
 10
152.6990061581631
 20
159.0346359151128
 30
0.0
 10
149.5822952831021
 20
159.0346769872696
 30
0.0
  0
LINE
  5
E5
330
1F
100
AcDbEntity
  8
INTERIOR_LOOPS
  6
CONTINUOUS
 62
     3
100
AcDbLine
 10
149.5822952831
 20
159.0346769873
 30
0.0
 11
150.2455082747
 21
165.334402996
 31
0.0
  0
SPLINE
  5
E6
330
1F
100
AcDbEntity
  8
INTERIOR_LOOPS
  6
CONTINUOUS
 62
     3
100
AcDbSpline
210
0.0
220
0.0
230
1.0
 70
     8
 71
     3
 72
    30
 73
    26
 74
     0
 42
0.0000000001124341
 43
0.0000000001
 40
0.0
 40
0.0
 40
0.0
 40
0.0
 40
0.1376020973579047
 40
0.1376020973579047
 40
0.1376020973579047
 40
0.2777862076617714
 40
0.2777862076617714
 40
0.4179703179656385
 40
0.4179703179656385
 40
0.4179703179656385
 40
0.5470249474359131
 40
0.5470249474359131
 40
0.612645945471646
 40
0.612645945471646
 40
0.612645945471646
 40
0.6967003024985635
 40
0.6967003024985635
 40
0.6967003024985635
 40
0.8439990560642202
 40
0.8439990560642202
 40
0.8439990560642202
 40
0.9522536757937085
 40
0.9522536757937085
 40
0.9522536757937085
 40
1.0
 40
1.0
 40
1.0
 40
1.0
 10
150.2455082747086
 20
165.3344029959764
 30
0.0
 10
154.9205689071081
 20
164.9033069050201
 30
0.0
 10
158.4682928549362
 20
163.2785917177992
 30
0.0
 10
160.9549931155345
 20
160.4602565604382
 30
0.0
 10
163.4271795613823
 20
157.6583708300656
 30
0.0
 10
164.6352775173703
 20
153.8620648248368
 30
0.0
 10
164.635151679273
 20
144.3129932076288
 30
0.0
 10
163.3088414845871
 20
140.5000133379933
 30
0.0
 10
160.6562848881398
 20
137.714902404668
 30
0.0
 10
157.9871695257813
 20
134.9124052259207
 30
0.0
 10
154.7212161349503
 20
133.5041052853417
 30
0.0
 10
148.819359371537
 20
133.5041830602768
 30
0.0
 10
146.8631311932103
 20
133.9020868236596
 30
0.0
 10
144.9400651937463
 20
134.7310246328258
 30
0.0
 10
142.9890378435756
 20
135.5720151852688
 30
0.0
 10
140.9613141911403
 20
136.9194059776432
 30
0.0
 10
138.8393231816619
 20
138.8093543659039
 30
0.0
 10
136.7008647130222
 20
140.713969474128
 30
0.0
 10
133.7996022351803
 20
143.882365077097
 30
0.0
 10
130.0861324967763
 20
148.2922283373594
 30
0.0
 10
126.9934372781981
 20
151.9649021385087
 30
0.0
 10
124.8806417281376
 20
154.3267796946967
 30
0.0
 10
123.78649125401
 20
155.3878020711129
 30
0.0
 10
122.7089109716345
 20
156.4327559591026
 30
0.0
 10
121.5981872471899
 20
157.2777513332493
 30
0.0
 10
120.5040319667461
 20
157.974052224286
 30
0.0
  0
ARC
  5
E7
330
1F
100
AcDbEntity
  8
INTERIOR_LOOPS
  6
CONTINUOUS
 62
     3
100
AcDbCircle
 10
129.4476654117
 20
48.3807270586
 30
0.0
 40
11.67758785830469
100
AcDbArc
 50
273.095771057
 51
353.586329212
  0
SPLINE
  5
E8
330
1F
100
AcDbEntity
  8
INTERIOR_LOOPS
  6
CONTINUOUS
 62
     3
100
AcDbSpline
210
0.0
220
0.0
230
1.0
 70
     8
 71
     3
 72
    22
 73
    18
 74
     0
 42
0.0000000002562902
 43
0.0000000001
 40
0.0
 40
0.0
 40
0.0
 40
0.0
 40
0.1593355434956318
 40
0.1593355434956318
 40
0.1593355434956318
 40
0.3225868721194445
 40
0.3225868721194445
 40
0.3225868721194445
 40
0.5124282630643404
 40
0.5124282630643404
 40
0.5124282630643404
 40
0.7552742605322537
 40
0.7552742605322537
 40
0.8879633106951338
 40
0.8879633106951338
 40
0.8879633106951338
 40
1.0
 40
1.0
 40
1.0
 40
1.0
 10
130.0783148502499
 20
36.72018078181973
 30
0.0
 10
127.9344195014148
 20
36.72018380953176
 30
0.0
 10
125.9358736055947
 20
37.15623314360266
 30
0.0
 10
124.0826771627896
 20
38.02832878403241
 30
0.0
 10
122.1997315797318
 20
38.9144240711924
 30
0.0
 10
120.5579709394968
 20
40.20856631993362
 30
0.0
 10
119.1771594492331
 20
41.95275431649534
 30
0.0
 10
117.782348269367
 20
43.71462618281943
 30
0.0
 10
116.6698975496277
 20
45.87717646202614
 30
0.0
 10
115.8704826398124
 20
48.49345666076835
 30
0.0
 10
115.057809966849
 20
51.15312612180445
 30
0.0
 10
114.6350255803276
 20
54.19840026601099
 30
0.0
 10
114.6350332779005
 20
59.64898166135439
 30
0.0
 10
114.7077101597285
 20
61.39316760522996
 30
0.0
 10
114.8167239942729
 20
62.95566745127695
 30
0.0
 10
114.9233909217228
 20
64.4845289798633
 30
0.0
 10
115.1074258766978
 20
65.93531820352746
 30
0.0
 10
115.2891138219439
 20
67.2797946911264
 30
0.0
  0
LINE
  5
E9
330
1F
100
AcDbEntity
  8
INTERIOR_LOOPS
  6
CONTINUOUS
 62
     3
100
AcDbLine
 10
115.2891138219
 20
67.2797946911
 30
0.0
 11
121.1394045196
 21
67.2797864291
 31
0.0
  0
SPLINE
  5
EA
330
1F
100
AcDbEntity
  8
INTERIOR_LOOPS
  6
CONTINUOUS
 62
     3
100
AcDbSpline
210
0.0
220
0.0
230
1.0
 70
     8
 71
     3
 72
    34
 73
    30
 74
     0
 42
0.0000000001952747
 43
0.0000000001
 40
0.0
 40
0.0
 40
0.0
 40
0.0
 40
0.0970277187152457
 40
0.0970277187152457
 40
0.1940554374304929
 40
0.1940554374304929
 40
0.3240725805089241
 40
0.3240725805089241
 40
0.3240725805089241
 40
0.4071665170099388
 40
0.4071665170099388
 40
0.490260453510953
 40
0.490260453510953
 40
0.490260453510953
 40
0.5686712855243902
 40
0.5686712855243902
 40
0.6412013051368188
 40
0.6412013051368188
 40
0.6412013051368188
 40
0.7109730631357468
 40
0.7109730631357468
 40
0.7109730631357468
 40
0.7933005617712877
 40
0.7933005617712877
 40
0.7933005617712877
 40
0.8909387352245478
 40
0.8909387352245478
 40
0.8909387352245478
 40
1.0
 40
1.0
 40
1.0
 40
1.0
 10
121.1394045196125
 20
67.27978642906474
 30
0.0
 10
120.8487046385566
 20
65.71728683960355
 30
0.0
 10
120.6670162827733
 20
64.08211267758628
 30
0.0
 10
120.3763137845425
 20
60.66641541370829
 30
0.0
 10
120.3036369027146
 20
58.92222946983271
 30
0.0
 10
120.3036308986077
 20
54.67077598146484
 30
0.0
 10
120.5216512293437
 20
52.59955474333145
 30
0.0
 10
120.9576952777478
 20
50.85536808101573
 30
0.0
 10
121.3830519720244
 20
49.15393109179597
 30
0.0
 10
122.011469934239
 20
47.7303665928214
 30
0.0
 10
123.6103040645106
 20
45.55013177672932
 30
0.0
 10
124.6277447959973
 20
44.75071173519864
 30
0.0
 10
125.7541975659282
 20
44.24198921413485
 30
0.0
 10
126.9108318707491
 20
43.71963627115835
 30
0.0
 10
128.2251267721407
 20
43.51524153852264
 30
0.0
 10
131.023091888417
 20
43.51523758710185
 30
0.0
 10
132.1858829966275
 20
43.80593361937127
 30
0.0
 10
133.2033256781661
 20
44.3873275313276
 30
0.0
 10
134.2090286364561
 20
44.96201305199214
 30
0.0
 10
135.0201881959667
 20
45.84081333756153
 30
0.0
 10
135.6742594516053
 20
46.89459148361914
 30
0.0
 10
136.3547181312912
 20
47.99088256775809
 30
0.0
 10
136.873390745513
 20
49.29284560410422
 30
0.0
 10
137.2004277332369
 20
50.78267072364369
 30
0.0
 10
137.5350745487114
 20
52.30716260249141
 30
0.0
 10
137.7091531280612
 20
53.94400721450271
 30
0.0
 10
137.7091556426018
 20
55.72453047031489
 30
0.0
 10
137.7091582597766
 20
57.57772814473165
 30
0.0
 10
137.7091608769514
 20
59.4309258191484
 30
0.0
 10
137.7091634941262
 20
61.28412349356515
 30
0.0
  0
LINE
  5
EB
330
1F
100
AcDbEntity
  8
INTERIOR_LOOPS
  6
CONTINUOUS
 62
     3
100
AcDbLine
 10
137.7091634941
 20
61.2841234936
 30
0.0
 11
143.0143960523
 21
61.2841160013
 31
0.0
  0
SPLINE
  5
EC
330
1F
100
AcDbEntity
  8
INTERIOR_LOOPS
  6
CONTINUOUS
 62
     3
100
AcDbSpline
210
0.0
220
0.0
230
1.0
 70
     8
 71
     3
 72
    28
 73
    24
 74
     0
 42
0.0000000002204437
 43
0.0000000001
 40
0.0
 40
0.0
 40
0.0
 40
0.0
 40
0.1254466494893986
 40
0.1254466494893986
 40
0.1254466494893986
 40
0.2099649834297875
 40
0.2099649834297875
 40
0.294483317370175
 40
0.294483317370175
 40
0.294483317370175
 40
0.3686905269088144
 40
0.3686905269088144
 40
0.3686905269088144
 40
0.4451905404117695
 40
0.4451905404117695
 40
0.5940554315526534
 40
0.5940554315526534
 40
0.5940554315526534
 40
0.7900286714927509
 40
0.7900286714927509
 40
0.8950143357463755
 40
0.8950143357463755
 40
1.0
 40
1.0
 40
1.0
 40
1.0
 10
143.0143960522604
 20
61.2841160012608
 30
0.0
 10
143.0143934008742
 20
59.40669352064251
 30
0.0
 10
143.0143907494879
 20
57.52927104002423
 30
0.0
 10
143.0143880981017
 20
55.65184855940596
 30
0.0
 10
143.0143860454156
 20
54.19836018731437
 30
0.0
 10
143.1960701931924
 20
52.8538831865439
 30
0.0
 10
143.9954854109106
 20
50.45562624361543
 30
0.0
 10
144.5405421135646
 20
49.43818361339402
 30
0.0
 10
145.2672850679988
 20
48.56608956379604
 30
0.0
 10
145.9612650203887
 20
47.73331122954875
 30
0.0
 10
146.8661201219791
 20
47.03992451514516
 30
0.0
 10
147.9198985759396
 20
46.60387651532023
 30
0.0
 10
148.9865149399992
 20
46.16251625559897
 30
0.0
 10
150.1728045776556
 20
45.91346635691323
 30
0.0
 10
154.1335603916052
 20
45.91346076334354
 30
0.0
 10
156.0230964043016
 20
46.71287669950194
 30
0.0
 10
157.2222265692319
 20
48.31171221533662
 30
0.0
 10
158.390833420873
 20
49.86985009985913
 30
0.0
 10
159.0027553672966
 20
52.23612830544336
 30
0.0
 10
159.0027619872094
 20
56.92362830543869
 30
0.0
 10
158.8210783526041
 20
58.63147739923207
 30
0.0
 10
158.1670135116096
 20
62.11985041596058
 30
0.0
 10
157.6946324078546
 20
63.97304875750033
 30
0.0
 10
157.0405654628569
 20
65.97159619283501
 30
0.0
  0
LINE
  5
ED
330
1F
100
AcDbEntity
  8
INTERIOR_LOOPS
  6
CONTINUOUS
 62
     3
100
AcDbLine
 10
157.0405654629
 20
65.9715961928
 30
0.0
 11
162.709170114
 21
65.9715881874
 31
0.0
  0
SPLINE
  5
EE
330
1F
100
AcDbEntity
  8
INTERIOR_LOOPS
  6
CONTINUOUS
 62
     3
100
AcDbSpline
210
0.0
220
0.0
230
1.0
 70
     8
 71
     3
 72
    33
 73
    29
 74
     0
 42
0.0000000002035892
 43
0.0000000001
 40
0.0
 40
0.0
 40
0.0
 40
0.0
 40
0.0582588184596367
 40
0.0582588184596367
 40
0.0582588184596367
 40
0.1184925545689696
 40
0.1184925545689696
 40
0.1184925545689696
 40
0.1772076193794118
 40
0.1772076193794118
 40
0.1772076193794118
 40
0.2271272214213615
 40
0.2271272214213615
 40
0.3748060441287964
 40
0.3748060441287964
 40
0.3748060441287964
 40
0.4875049331824009
 40
0.4875049331824009
 40
0.4875049331824009
 40
0.5881560750592324
 40
0.5881560750592324
 40
0.5881560750592324
 40
0.691296359908184
 40
0.691296359908184
 40
0.8470179664448387
 40
0.8470179664448387
 40
0.8470179664448387
 40
1.0
 40
1.0
 40
1.0
 40
1.0
 10
162.709170114014
 20
65.97158818735912
 30
0.0
 10
162.9998665568206
 20
65.09949475356694
 30
0.0
 10
163.254225790325
 20
64.22740137109194
 30
0.0
 10
163.5085848698779
 20
63.24629636071004
 30
0.0
 10
163.7541165777753
 20
62.29923998179385
 30
0.0
 10
163.9446287130134
 20
61.35676086118516
 30
0.0
 10
164.1263133739617
 20
60.37565595343759
 30
0.0
 10
164.3014920855126
 20
59.42968344954836
 30
0.0
 10
164.4170083798881
 20
58.48612065918131
 30
0.0
 10
164.5260186735489
 20
57.54135306337032
 30
0.0
 10
164.6345515498653
 20
56.60072313586218
 30
0.0
 10
164.635027684281
 20
55.68815523500212
 30
0.0
 10
164.6350228091514
 20
52.23612035128463
 30
0.0
 10
164.3806591110548
 20
49.94687652446048
 30
0.0
 10
163.7992609910919
 20
47.98466804321129
 30
0.0
 10
163.2207955224277
 20
46.032357208778
 30
0.0
 10
162.454779166509
 20
44.38728622101931
 30
0.0
 10
161.4009982493251
 20
43.07914817433434
 30
0.0
 10
160.3294652904853
 20
41.74897317412543
 30
0.0
 10
159.0754135696808
 20
40.75357006328564
 30
0.0
 10
157.585587013261
 20
40.06316519054541
 30
0.0
 10
156.1096227019793
 20
39.37918426128319
 30
0.0
 10
154.4242484183987
 20
39.08206500397591
 30
0.0
 10
149.7730856277057
 20
39.08207157257153
 30
0.0
 10
147.4475052073851
 20
39.77248183361282
 30
0.0
 10
145.5579723763521
 20
41.22597287419637
 30
0.0
 10
143.6860002593623
 20
42.66595563373358
 30
0.0
 10
142.1786166837345
 20
44.60533811180452
 30
0.0
 10
141.0521666849299
 20
47.07626993519195
 30
0.0
  0
LINE
  5
EF
330
1F
100
AcDbEntity
  8
INTERIOR_LOOPS
  6
CONTINUOUS
 62
     3
100
AcDbLine
 10
-94.635
 20
62.569241012
 30
0.0
 11
-94.635
 21
56.4107856192
 31
0.0
  0
LINE
  5
F0
330
1F
100
AcDbEntity
  8
INTERIOR_LOOPS
  6
CONTINUOUS
 62
     3
100
AcDbLine
 10
-94.635
 20
56.4107856192
 30
0.0
 11
-106.5857323569
 21
56.4107856192
 31
0.0
  0
LINE
  5
F1
330
1F
100
AcDbEntity
  8
INTERIOR_LOOPS
  6
CONTINUOUS
 62
     3
100
AcDbLine
 10
-106.5857323569
 20
56.4107856192
 30
0.0
 11
-106.5857323569
 21
34.6398135819
 31
0.0
  0
LINE
  5
F2
330
1F
100
AcDbEntity
  8
INTERIOR_LOOPS
  6
CONTINUOUS
 62
     3
100
AcDbLine
 10
-106.5857323569
 20
34.6398135819
 30
0.0
 11
-112.2448535286
 21
34.6398135819
 31
0.0
  0
LINE
  5
F3
330
1F
100
AcDbEntity
  8
INTERIOR_LOOPS
  6
CONTINUOUS
 62
     3
100
AcDbLine
 10
-112.2448535286
 20
34.6398135819
 30
0.0
 11
-144.635
 21
57.5426098535
 31
0.0
  0
LINE
  5
F4
330
1F
100
AcDbEntity
  8
INTERIOR_LOOPS
  6
CONTINUOUS
 62
     3
100
AcDbLine
 10
-144.635
 20
57.5426098535
 30
0.0
 11
-144.635
 21
62.569241012
 31
0.0
  0
LINE
  5
F5
330
1F
100
AcDbEntity
  8
INTERIOR_LOOPS
  6
CONTINUOUS
 62
     3
100
AcDbLine
 10
-144.635
 20
62.569241012
 30
0.0
 11
-112.2448535286
 21
62.569241012
 31
0.0
  0
LINE
  5
F6
330
1F
100
AcDbEntity
  8
INTERIOR_LOOPS
  6
CONTINUOUS
 62
     3
100
AcDbLine
 10
-112.2448535286
 20
62.569241012
 30
0.0
 11
-112.2448535286
 21
69.3601864181
 31
0.0
  0
LINE
  5
F7
330
1F
100
AcDbEntity
  8
INTERIOR_LOOPS
  6
CONTINUOUS
 62
     3
100
AcDbLine
 10
-112.2448535286
 20
69.3601864181
 30
0.0
 11
-106.5857323569
 21
69.3601864181
 31
0.0
  0
LINE
  5
F8
330
1F
100
AcDbEntity
  8
INTERIOR_LOOPS
  6
CONTINUOUS
 62
     3
100
AcDbLine
 10
-106.5857323569
 20
69.3601864181
 30
0.0
 11
-106.5857323569
 21
62.569241012
 31
0.0
  0
LINE
  5
F9
330
1F
100
AcDbEntity
  8
OUTER_LOOP
  6
CONTINUOUS
 62
     3
100
AcDbLine
 10
-134.7814713715
 20
56.4107856192
 30
0.0
 11
-112.2448535286
 21
40.6984021305
 31
0.0
  0
LINE
  5
FA
330
1F
100
AcDbEntity
  8
OUTER_LOOP
  6
CONTINUOUS
 62
     3
100
AcDbLine
 10
-112.2448535286
 20
40.6984021305
 30
0.0
 11
-112.2448535286
 21
56.4107856192
 31
0.0
  0
LINE
  5
FB
330
1F
100
AcDbEntity
  8
OUTER_LOOP
  6
CONTINUOUS
 62
     3
100
AcDbLine
 10
-112.2448535286
 20
56.4107856192
 30
0.0
 11
-134.7814713715
 21
56.4107856192
 31
0.0
  0
LINE
  5
FC
330
1F
100
AcDbEntity
  8
INTERIOR_LOOPS
  6
CONTINUOUS
 62
     3
100
AcDbLine
 10
-106.5857323569
 20
62.569241012
 30
0.0
 11
-94.635
 21
62.569241012
 31
0.0
  0
SPLINE
  5
FD
330
1F
100
AcDbEntity
  8
INTERIOR_LOOPS
  6
CONTINUOUS
 62
     3
100
AcDbSpline
210
0.0
220
0.0
230
1.0
 70
     8
 71
     3
 72
    23
 73
    19
 74
     0
 42
0.0000000001131006
 43
0.0000000001
 40
0.0
 40
0.0
 40
0.0
 40
0.0
 40
0.1111450644545289
 40
0.1111450644545289
 40
0.2593384837272342
 40
0.2593384837272342
 40
0.2593384837272342
 40
0.4096076030833987
 40
0.4096076030833987
 40
0.5535273230301478
 40
0.5535273230301478
 40
0.5535273230301478
 40
0.7254411766350611
 40
0.7254411766350611
 40
0.8664723020474748
 40
0.8664723020474748
 40
0.8664723020474748
 40
1.0
 40
1.0
 40
1.0
 40
1.0
 10
-125.4042307692307
 20
141.5450928381962
 30
0.0
 10
-127.4599336870026
 20
144.5623342175066
 30
0.0
 10
-128.5209416445623
 20
147.7122015915119
 30
0.0
 10
-128.5209416445623
 20
155.3713527851459
 30
0.0
 10
-126.9957427055703
 20
159.051724137931
 30
0.0
 10
-123.9785013262599
 20
162.0358090185676
 30
0.0
 10
-120.944682709654
 20
165.0362889690569
 30
0.0
 10
-117.081949602122
 20
166.5450928381962
 30
0.0
 10
-107.8644429708222
 20
166.5450928381962
 30
0.0
 10
-103.9519761273209
 20
165.2188328912467
 30
0.0
 10
-100.6694827586207
 20
162.5994694960212
 30
0.0
 10
-96.63010477635463
 20
159.3761274697685
 30
0.0
 10
-94.63499999999999
 20
155.0066312997347
 30
0.0
 10
-94.63499999999998
 20
144.9270557029177
 30
0.0
 10
-95.89494694960207
 20
141.2466843501326
 30
0.0
 10
-98.44799734748005
 20
138.3620689655172
 30
0.0
 10
-100.9700283154238
 20
135.5125015082301
 30
0.0
 10
-104.3498541114058
 20
133.8527851458886
 30
0.0
 10
-108.5607294429708
 20
133.4549071618036
 30
0.0
  0
LINE
  5
FE
330
1F
100
AcDbEntity
  8
INTERIOR_LOOPS
  6
CONTINUOUS
 62
     3
100
AcDbLine
 10
-108.560729443
 20
133.4549071618
 30
0.0
 11
-109.0249204244
 21
139.8541114058
 31
0.0
  0
SPLINE
  5
FF
330
1F
100
AcDbEntity
  8
INTERIOR_LOOPS
  6
CONTINUOUS
 62
     3
100
AcDbSpline
210
0.0
220
0.0
230
1.0
 70
     8
 71
     3
 72
    24
 73
    20
 74
     0
 42
0.0000000001599028
 43
0.0000000001
 40
0.0
 40
0.0
 40
0.0
 40
0.0
 40
0.124452655991598
 40
0.124452655991598
 40
0.2489053119831958
 40
0.2489053119831958
 40
0.3965891304265586
 40
0.3965891304265586
 40
0.5442729488699218
 40
0.5442729488699218
 40
0.6839738582082382
 40
0.6839738582082382
 40
0.6839738582082382
 40
0.8262213690067809
 40
0.8262213690067809
 40
0.9151260632558696
 40
0.9151260632558696
 40
0.9151260632558696
 40
1.0
 40
1.0
 40
1.0
 40
1.0
 10
-109.0249204244032
 20
139.8541114058355
 30
0.0
 10
-105.9082095490716
 20
140.3514588859416
 30
0.0
 10
-103.554098143236
 20
141.445623342175
 30
0.0
 10
-100.4373872679045
 20
144.893899204244
 30
0.0
 10
-99.6416312997347
 20
146.9827586206896
 30
0.0
 10
-99.64163129973473
 20
152.420424403183
 30
0.0
 10
-100.7689522546419
 20
154.9403183023872
 30
0.0
 10
-105.2119230769231
 20
158.9854111405835
 30
0.0
 10
-108.1628514588859
 20
160.0132625994695
 30
0.0
 10
-115.3246551724138
 20
160.0132625994695
 30
0.0
 10
-118.0766445623342
 20
159.0185676392573
 30
0.0
 10
-120.0991909814323
 20
157.0954907161803
 30
0.0
 10
-122.1382945906939
 20
155.1566708909808
 30
0.0
 10
-123.1164323607427
 20
152.5530503978779
 30
0.0
 10
-123.1164323607427
 20
147.3806366047745
 30
0.0
 10
-122.6522413793103
 20
145.5901856763926
 30
0.0
 10
-121.7570159151193
 20
143.998673740053
 30
0.0
 10
-120.8679888468229
 20
142.4181811741926
 30
0.0
 10
-119.6681564986737
 20
141.1803713527851
 30
0.0
 10
-118.2092705570291
 20
140.2851458885941
 30
0.0
  0
LINE
  5
100
330
1F
100
AcDbEntity
  8
INTERIOR_LOOPS
  6
CONTINUOUS
 62
     3
100
AcDbLine
 10
-118.209270557
 20
140.2851458886
 30
0.0
 11
-119.0381830239
 21
134.5159151194
 31
0.0
  0
LINE
  5
101
330
1F
100
AcDbEntity
  8
INTERIOR_LOOPS
  6
CONTINUOUS
 62
     3
100
AcDbLine
 10
-119.0381830239
 20
134.5159151194
 30
0.0
 11
-144.635
 21
139.3236074271
 31
0.0
  0
LINE
  5
102
330
1F
100
AcDbEntity
  8
INTERIOR_LOOPS
  6
CONTINUOUS
 62
     3
100
AcDbLine
 10
-144.635
 20
139.3236074271
 30
0.0
 11
-144.635
 21
164.1578249337
 31
0.0
  0
LINE
  5
103
330
1F
100
AcDbEntity
  8
INTERIOR_LOOPS
  6
CONTINUOUS
 62
     3
100
AcDbLine
 10
-144.635
 20
164.1578249337
 30
0.0
 11
-138.7662997347
 21
164.1578249337
 31
0.0
  0
LINE
  5
104
330
1F
100
AcDbEntity
  8
INTERIOR_LOOPS
  6
CONTINUOUS
 62
     3
100
AcDbLine
 10
-138.7662997347
 20
164.1578249337
 30
0.0
 11
-138.7662997347
 21
144.1976127321
 31
0.0
  0
LINE
  5
105
330
1F
100
AcDbEntity
  8
INTERIOR_LOOPS
  6
CONTINUOUS
 62
     3
100
AcDbLine
 10
-138.7662997347
 20
144.1976127321
 30
0.0
 11
-125.4042307692
 21
141.5450928382
 31
0.0
  0
SPLINE
  5
106
330
1F
100
AcDbEntity
  8
INTERIOR_LOOPS
  6
CONTINUOUS
 62
     3
100
AcDbSpline
210
0.0
220
0.0
230
1.0
 70
     8
 71
     3
 72
    38
 73
    34
 74
     0
 42
0.0000000000638999
 43
0.0000000001
 40
0.0
 40
0.0
 40
0.0
 40
0.0
 40
0.0479956217202913
 40
0.0479956217202913
 40
0.0479956217202913
 40
0.0928889125608572
 40
0.0928889125608572
 40
0.0928889125608572
 40
0.1681172153752272
 40
0.1681172153752272
 40
0.1681172153752272
 40
0.2521771735972095
 40
0.2521771735972095
 40
0.3070496463254478
 40
0.3070496463254478
 40
0.361922119053686
 40
0.361922119053686
 40
0.361922119053686
 40
0.4266758135382487
 40
0.4266758135382487
 40
0.5381960651505505
 40
0.5381960651505505
 40
0.6497163167628529
 40
0.6497163167628529
 40
0.7741042897150353
 40
0.7741042897150353
 40
0.7741042897150353
 40
0.8651513185136668
 40
0.8651513185136668
 40
0.9332934344069823
 40
0.9332934344069823
 40
0.9332934344069823
 40
1.0
 40
1.0
 40
1.0
 40
1.0
 10
-120.6623972602739
 20
237.7586431833007
 30
0.0
 10
-122.880270711024
 20
239.2263535551207
 30
0.0
 10
-124.5110600130462
 20
240.9876060013046
 30
0.0
 10
-125.5873809523809
 20
243.1076320939334
 30
0.0
 10
-126.6505365057432
 20
245.2017263657077
 30
0.0
 10
-127.1855544683626
 20
247.412915851272
 30
0.0
 10
-127.218170254403
 20
249.7286366601435
 30
0.0
 10
-127.2746559830236
 20
253.7391233922073
 30
0.0
 10
-125.7178440965426
 20
257.1650358773646
 30
0.0
 10
-122.7824233529027
 20
260.0026092628832
 30
0.0
 10
-119.8301420650719
 20
262.8564811744531
 30
0.0
 10
-116.0309556425309
 20
264.2426614481409
 30
0.0
 10
-108.2683985649053
 20
264.2426614481409
 30
0.0
 10
-105.4308251793867
 20
263.590345727332
 30
0.0
 10
-100.1470678408349
 20
260.9158512720157
 30
0.0
 10
-98.12488910632737
 20
259.0893672537508
 30
0.0
 10
-96.72241030658829
 20
256.7410306588388
 30
0.0
 10
-95.3342893162593
 20
254.4167350471253
 30
0.0
 10
-94.6349999999999
 20
251.7834311806914
 30
0.0
 10
-94.6349999999999
 20
243.7925636007828
 30
0.0
 10
-96.46148401826474
 20
239.6829745596868
 30
0.0
 10
-103.832651663405
 20
233.3555120678408
 30
0.0
 10
-109.8991878669275
 20
231.7573385518591
 30
0.0
 10
-127.8378701891715
 20
231.7573385518591
 30
0.0
 10
-134.7198010437051
 20
233.518590998043
 30
0.0
 10
-139.0250848010436
 20
237.041095890411
 30
0.0
 10
-142.7549098383419
 20
240.0927709209277
 30
0.0
 10
-144.6349999999999
 20
244.2491846053489
 30
0.0
 10
-144.6349999999999
 20
253.3163731245923
 30
0.0
 10
-143.5586790606653
 20
256.4801043705153
 30
0.0
 10
-141.3734213959555
 20
258.958904109589
 30
0.0
 10
-139.2024269814685
 20
261.421524639455
 30
0.0
 10
-136.2527429876059
 20
262.9380300065231
 30
0.0
 10
-132.436696020874
 20
263.4272667971298
 30
0.0
  0
LINE
  5
107
330
1F
100
AcDbEntity
  8
INTERIOR_LOOPS
  6
CONTINUOUS
 62
     3
100
AcDbLine
 10
-132.4366960209
 20
263.4272667971
 30
0.0
 11
-131.9800750163
 21
257.3933463796
 31
0.0
  0
SPLINE
  5
108
330
1F
100
AcDbEntity
  8
OUTER_LOOP
  6
CONTINUOUS
 62
     3
100
AcDbSpline
210
0.0
220
0.0
230
1.0
 70
    11
 71
     3
 72
    28
 73
    24
 74
     0
 42
0.0000000001479363
 43
0.0000000001
 40
0.0
 40
0.0
 40
0.0
 40
0.0
 40
0.0901286806836325
 40
0.0901286806836325
 40
0.1802573613672655
 40
0.1802573613672655
 40
0.1802573613672655
 40
0.2588415856888214
 40
0.2588415856888214
 40
0.3738073953444306
 40
0.3738073953444306
 40
0.3738073953444306
 40
0.5094818845890764
 40
0.5094818845890764
 40
0.6401313927505866
 40
0.6401313927505866
 40
0.6401313927505866
 40
0.7582319020136403
 40
0.7582319020136403
 40
0.8735535757646218
 40
0.8735535757646218
 40
0.8735535757646218
 40
1.0
 40
1.0
 40
1.0
 40
1.0
 10
-111.334282452707
 20
238.7045009784736
 30
0.0
 10
-109.2468721461186
 20
238.7045009784736
 30
0.0
 10
-107.2573091976516
 20
239.1611219830398
 30
0.0
 10
-103.4738780169601
 20
240.9223744292237
 30
0.0
 10
-102.0387834311806
 20
242.1291585127202
 30
0.0
 10
-101.0603098499673
 20
243.7273320287019
 30
0.0
 10
-100.0963607175511
 20
245.3017822783149
 30
0.0
 10
-99.55998369210688
 20
246.9562948467058
 30
0.0
 10
-99.55998369210688
 20
251.2941943900848
 30
0.0
 10
-100.6036888454011
 20
253.4794520547945
 30
0.0
 10
-102.658483365949
 20
255.3059360730593
 30
0.0
 10
-104.6950580336054
 20
257.1162246665317
 30
0.0
 10
-107.4530039138942
 20
258.0456621004566
 30
0.0
 10
-114.3675505544683
 20
258.0456621004566
 30
0.0
 10
-117.0420450097847
 20
257.1650358773646
 30
0.0
 10
-118.9663763861708
 20
255.3385518590998
 30
0.0
 10
-120.8915802114204
 20
253.5112397537781
 30
0.0
 10
-121.9017971298108
 20
251.2615786040444
 30
0.0
 10
-121.9017971298108
 20
245.7821265492498
 30
0.0
 10
-120.9233235485974
 20
243.4664057403783
 30
0.0
 10
-118.9663763861708
 20
241.5420743639922
 30
0.0
 10
-117.0423167696175
 20
239.6500824077147
 30
0.0
 10
-114.4653979125896
 20
238.7045009784736
 30
0.0
 10
-111.334282452707
 20
238.7045009784736
 30
0.0
  0
SPLINE
  5
109
330
1F
100
AcDbEntity
  8
INTERIOR_LOOPS
  6
CONTINUOUS
 62
     3
100
AcDbSpline
210
0.0
220
0.0
230
1.0
 70
     8
 71
     3
 72
    18
 73
    14
 74
     0
 42
0.0000000002661142
 43
0.0000000001
 40
0.0
 40
0.0
 40
0.0
 40
0.0
 40
0.1530019109273054
 40
0.1530019109273054
 40
0.1530019109273054
 40
0.3352344606612612
 40
0.3352344606612612
 40
0.4825183022270613
 40
0.4825183022270613
 40
0.4825183022270613
 40
0.7412591511135308
 40
0.7412591511135308
 40
1.0
 40
1.0
 40
1.0
 40
1.0
 10
-131.9800750163078
 20
257.3933463796477
 30
0.0
 10
-134.3284116112197
 20
256.8714938030006
 30
0.0
 10
-136.0244324853228
 20
256.1213307240704
 30
0.0
 10
-137.1007534246574
 20
255.1102413568167
 30
0.0
 10
-138.8328425850794
 20
253.4831272970264
 30
0.0
 10
-139.6774005218525
 20
251.457273320287
 30
0.0
 10
-139.6774005218525
 20
247.1519895629484
 30
0.0
 10
-139.1229321591649
 20
245.4233529028049
 30
0.0
 10
-138.0792270058707
 20
243.955642530985
 30
0.0
 10
-136.714776779229
 20
242.03688439977
 30
0.0
 10
-134.6545694716242
 20
240.5962165688193
 30
0.0
 10
-129.3708121330723
 20
238.3783431180691
 30
0.0
 10
-125.5873809523809
 20
237.8238747553816
 30
0.0
 10
-120.6623972602739
 20
237.7586431833007
 30
0.0
  0
CIRCLE
  5
10A
330
1F
100
AcDbEntity
  8
INTERIOR_LOOPS
  6
CONTINUOUS
 62
     3
100
AcDbCircle
 10
-89.0
 20
52.0
 30
0.0
 40
1.5
  0
CIRCLE
  5
10B
330
1F
100
AcDbEntity
  8
INTERIOR_LOOPS
  6
CONTINUOUS
 62
     3
100
AcDbCircle
 10
-89.0
 20
150.0
 30
0.0
 40
1.5
  0
CIRCLE
  5
10C
330
1F
100
AcDbEntity
  8
INTERIOR_LOOPS
  6
CONTINUOUS
 62
     3
100
AcDbCircle
 10
-89.0
 20
248.0
 30
0.0
 40
1.5
  0
CIRCLE
  5
10D
330
1F
100
AcDbEntity
  8
INTERIOR_LOOPS
  6
CONTINUOUS
 62
     3
100
AcDbCircle
 10
109.0
 20
248.0
 30
0.0
 40
1.5
  0
CIRCLE
  5
10E
330
1F
100
AcDbEntity
  8
INTERIOR_LOOPS
  6
CONTINUOUS
 62
     3
100
AcDbCircle
 10
109.0
 20
150.0
 30
0.0
 40
1.5
  0
CIRCLE
  5
10F
330
1F
100
AcDbEntity
  8
INTERIOR_LOOPS
  6
CONTINUOUS
 62
     3
100
AcDbCircle
 10
109.0
 20
52.0
 30
0.0
 40
1.5
  0
LINE
  5
110
330
1F
100
AcDbEntity
  8
OUTER_LOOP
  6
CONTINUOUS
 62
     3
100
AcDbLine
 10
109.0
 20
14.0
 30
0.0
 11
109.0
 21
11.0
 31
0.0
  0
LINE
  5
111
330
1F
100
AcDbEntity
  8
OUTER_LOOP
  6
CONTINUOUS
 62
     3
100
AcDbLine
 10
109.0
 20
11.0
 30
0.0
 11
129.0
 21
11.0
 31
0.0
  0
LINE
  5
112
330
1F
100
AcDbEntity
  8
OUTER_LOOP
  6
CONTINUOUS
 62
     3
100
AcDbLine
 10
129.0
 20
11.0
 30
0.0
 11
129.0
 21
14.0
 31
0.0
  0
LINE
  5
113
330
1F
100
AcDbEntity
  8
OUTER_LOOP
  6
CONTINUOUS
 62
     3
100
AcDbLine
 10
129.0
 20
14.0
 30
0.0
 11
109.0
 21
14.0
 31
0.0
  0
ENDSEC
  0
SECTION
  2
OBJECTS
  0
DICTIONARY
  5
C
330
0
100
AcDbDictionary
  3
ACAD_GROUP
350
D
  3
ACAD_LAYOUT
350
1A
  3
ACAD_MATERIAL
350
43
  3
ACAD_MLEADERSTYLE
350
5B
  3
ACAD_MLINESTYLE
350
17
  3
ACAD_PLOTSETTINGS
350
19
  3
ACAD_SCALELIST
350
47
  3
ACAD_VISUALSTYLE
350
2A
  3
ACDBHEADERROUNDTRIPXREC
350
114
  3
ACDBVARIABLEDICTIONARY
350
135
  3
DWGPROPS
350
140
  0
DICTIONARY
  5
141
330
8
100
AcDbDictionary
280
     1
  3
ACAD_XREC_ROUNDTRIP
360
142
  0
DICTIONARY
  5
D
102
{ACAD_REACTORS
330
C
102
}
330
C
100
AcDbDictionary
  0
DICTIONARY
  5
1A
102
{ACAD_REACTORS
330
C
102
}
330
C
100
AcDbDictionary
  0
DICTIONARY
  5
43
102
{ACAD_REACTORS
330
C
102
}
330
C
100
AcDbDictionary
  3
BYBLOCK
350
45
  3
BYLAYER
350
44
  3
GLOBAL
350
46
  0
DICTIONARY
  5
5B
102
{ACAD_REACTORS
330
C
102
}
330
C
100
AcDbDictionary
  3
STANDARD
350
5C
  0
DICTIONARY
  5
17
102
{ACAD_REACTORS
330
C
102
}
330
C
100
AcDbDictionary
  3
STANDARD
350
18
  0
DICTIONARY
  5
19
102
{ACAD_REACTORS
330
C
102
}
330
C
100
AcDbDictionary
  0
DICTIONARY
  5
47
102
{ACAD_REACTORS
330
C
102
}
330
C
100
AcDbDictionary
  3
A0
350
48
  3
A1
350
49
  3
A2
350
4A
  3
A3
350
4B
  3
A4
350
4C
  3
A5
350
4D
  3
A6
350
4E
  3
A7
350
4F
  3
A8
350
50
  3
A9
350
51
  3
B0
350
52
  3
B1
350
53
  3
B2
350
54
  3
B3
350
55
  3
B4
350
56
  3
B5
350
57
  3
B6
350
58
  0
DICTIONARY
  5
2A
102
{ACAD_REACTORS
330
C
102
}
330
C
100
AcDbDictionary
  3
2DWIREFRAME
350
2F
  3
BASIC
350
32
  3
BRIGHTEN
350
36
  3
COLORCHANGE
350
3A
  3
CONCEPTUAL
350
34
  3
DIM
350
35
  3
EDGECOLOROFF
350
3D
  3
FACEPATTERN
350
39
  3
FLAT
350
2B
  3
FLATWITHEDGES
350
2C
  3
GOURAUD
350
2D
  3
GOURAUDWITHEDGES
350
2E
  3
HIDDEN
350
31
  3
JITTEROFF
350
3B
  3
LINEPATTERN
350
38
  3
OVERHANGOFF
350
3C
  3
REALISTIC
350
33
  3
SHADED
350
42
  3
SHADED_WITH_EDGES
350
41
  3
SHADES_OF_GRAY
350
3E
  3
SKETCHY
350
3F
  3
THICKEN
350
37
  3
WIREFRAME
350
30
  3
X-RAY
350
40
  0
DICTIONARY
  5
114
102
{ACAD_REACTORS
330
C
102
}
330
C
100
AcDbDictionary
  3
CEPSNID
350
11E
  3
CEPSNTYPE
350
11D
  3
DIMSTYLEDATA
350
134
  3
FINGERPRINTGUID
350
11F
  3
HYPERLINKBASE
350
117
  3
INSUNITS
350
11C
  3
LAYOUTDICT
350
119
  3
LWETCUNION
350
11B
  3
PLOTSETDICT
350
11A
  3
PSVPSCALE
350
121
  3
PUCSBASE
350
124
  3
PUCSORGBACK
350
12A
  3
PUCSORGBOTTOM
350
126
  3
PUCSORGFRONT
350
129
  3
PUCSORGLEFT
350
127
  3
PUCSORGRIGHT
350
128
  3
PUCSORGTOP
350
125
  3
PUCSORTHOREF
350
122
  3
PUCSORTHOVIEW
350
123
  3
STYLESHEET
350
118
  3
TSTACKALIGN
350
115
  3
TSTACKSIZE
350
116
  3
UCSBASE
350
12D
  3
UCSORGBACK
350
133
  3
UCSORGBOTTOM
350
12F
  3
UCSORGFRONT
350
132
  3
UCSORGLEFT
350
130
  3
UCSORGRIGHT
350
131
  3
UCSORGTOP
350
12E
  3
UCSORTHOREF
350
12B
  3
UCSORTHOVIEW
350
12C
  3
VERSIONGUID
350
120
  0
DICTIONARY
  5
135
102
{ACAD_REACTORS
330
C
102
}
330
C
100
AcDbDictionary
  3
CANNOSCALE
350
143
  3
CENTEREXE
350
13C
  3
CENTERLTYPEFILE
350
13D
  3
CMLEADERSTYLE
350
137
  3
CTABLESTYLE
350
136
  3
DIMASSOC
350
13E
  3
HIDETEXT
350
13F
  3
MSLTSCALE
350
144
  3
PSOLHEIGHT
350
139
  3
PSOLWIDTH
350
138
  0
XRECORD
  5
140
102
{ACAD_REACTORS
330
C
102
}
330
C
100
AcDbXrecord
  1
DWGPROPS COOKIE
  2

  3

  4

  6

  7

  8
vanhe
  9

300
=
301
=
302
=
303
=
304
=
305
=
306
=
307
=
308
=
309
=
 40
0.0
 41
2459874.528994317
 42
2459874.528999375
  1

 90
        0
  0
XRECORD
  5
142
102
{ACAD_REACTORS
330
141
102
}
330
141
100
AcDbXrecord
102
VTR_0.000_0.000_1.000_1.000_VISUALSTYLE
340
2F
102
VTR_0.000_0.000_1.000_1.000_GRIDDISPLAY
 70
     3
102
VTR_0.000_0.000_1.000_1.000_GRIDMAJOR
 70
     5
102
VTR_0.000_0.000_1.000_1.000_DEFAULTLIGHTING
280
     1
102
VTR_0.000_0.000_1.000_1.000_DEFAULTLIGHTINGTYPE
 70
     1
102
VTR_0.000_0.000_1.000_1.000_BRIGHTNESS
141
0.0
102
VTR_0.000_0.000_1.000_1.000_CONTRAST
142
0.0
  0
MATERIAL
  5
45
102
{ACAD_REACTORS
330
43
102
}
102
{ACAD_XDICTIONARY
360
147
102
}
330
43
100
AcDbMaterial
  1
BYBLOCK
  0
MATERIAL
  5
44
102
{ACAD_REACTORS
330
43
102
}
102
{ACAD_XDICTIONARY
360
145
102
}
330
43
100
AcDbMaterial
  1
BYLAYER
  0
MATERIAL
  5
46
102
{ACAD_REACTORS
330
43
102
}
102
{ACAD_XDICTIONARY
360
149
102
}
330
43
100
AcDbMaterial
  1
GLOBAL
  0
ACAD_PROXY_OBJECT
  5
5C
102
{ACAD_REACTORS
330
5B
102
}
330
5B
100
AcDbProxyObject
 90
      499
 91
      505
 93
      610
310
40901902A4063FBFFFFFE0000000000000020400000000000020404214DD185B99185C990000000000000104090141901A00000000000004100000000000000041025764000000000000039000
340
14
340
0
340
11
340
0
 94
        0
1001
ACAD_MLEADERVER
1070
     2
  0
MLINESTYLE
  5
18
102
{ACAD_REACTORS
330
17
102
}
330
17
100
AcDbMlineStyle
  2
Standard
 70
     0
  3

 62
   256
 51
90.0
 52
90.0
 71
     2
 49
0.5
 62
   256
  6
BYLAYER
 49
-0.5
 62
   256
  6
BYLAYER
  0
ACAD_PROXY_OBJECT
  5
48
102
{ACAD_REACTORS
330
47
102
}
330
47
100
AcDbProxyObject
 90
      499
 91
      503
 93
       41
310
903313A31580
  0
ACAD_PROXY_OBJECT
  5
49
102
{ACAD_REACTORS
330
47
102
}
330
47
100
AcDbProxyObject
 90
      499
 91
      503
 93
      105
310
903313A324000000000000004000
  0
ACAD_PROXY_OBJECT
  5
4A
102
{ACAD_REACTORS
330
47
102
}
330
47
100
AcDbProxyObject
 90
      499
 91
      503
 93
      105
310
903313A344000000000000104000
  0
ACAD_PROXY_OBJECT
  5
4B
102
{ACAD_REACTORS
330
47
102
}
330
47
100
AcDbProxyObject
 90
      499
 91
      503
 93
      105
310
903313A354000000000000144000
  0
ACAD_PROXY_OBJECT
  5
4C
102
{ACAD_REACTORS
330
47
102
}
330
47
100
AcDbProxyObject
 90
      499
 91
      503
 93
      105
310
903313A384000000000000204000
  0
ACAD_PROXY_OBJECT
  5
4D
102
{ACAD_REACTORS
330
47
102
}
330
47
100
AcDbProxyObject
 90
      499
 91
      503
 93
      113
310
904313A31304000000000000244000
  0
ACAD_PROXY_OBJECT
  5
4E
102
{ACAD_REACTORS
330
47
102
}
330
47
100
AcDbProxyObject
 90
      499
 91
      503
 93
      113
310
904313A31364000000000000304000
  0
ACAD_PROXY_OBJECT
  5
4F
102
{ACAD_REACTORS
330
47
102
}
330
47
100
AcDbProxyObject
 90
      499
 91
      503
 93
      113
310
904313A32304000000000000344000
  0
ACAD_PROXY_OBJECT
  5
50
102
{ACAD_REACTORS
330
47
102
}
330
47
100
AcDbProxyObject
 90
      499
 91
      503
 93
      113
310
904313A333040000000000003E4000
  0
ACAD_PROXY_OBJECT
  5
51
102
{ACAD_REACTORS
330
47
102
}
330
47
100
AcDbProxyObject
 90
      499
 91
      503
 93
      113
310
904313A34304000000000000444000
  0
ACAD_PROXY_OBJECT
  5
52
102
{ACAD_REACTORS
330
47
102
}
330
47
100
AcDbProxyObject
 90
      499
 91
      503
 93
      113
310
904313A35304000000000000494000
  0
ACAD_PROXY_OBJECT
  5
53
102
{ACAD_REACTORS
330
47
102
}
330
47
100
AcDbProxyObject
 90
      499
 91
      503
 93
      121
310
905313A3130304000000000000594000
  0
ACAD_PROXY_OBJECT
  5
54
102
{ACAD_REACTORS
330
47
102
}
330
47
100
AcDbProxyObject
 90
      499
 91
      503
 93
      105
310
903323A310000000000000010100
  0
ACAD_PROXY_OBJECT
  5
55
102
{ACAD_REACTORS
330
47
102
}
330
47
100
AcDbProxyObject
 90
      499
 91
      503
 93
      105
310
903343A310000000000000410100
  0
ACAD_PROXY_OBJECT
  5
56
102
{ACAD_REACTORS
330
47
102
}
330
47
100
AcDbProxyObject
 90
      499
 91
      503
 93
      105
310
903383A310000000000000810100
  0
ACAD_PROXY_OBJECT
  5
57
102
{ACAD_REACTORS
330
47
102
}
330
47
100
AcDbProxyObject
 90
      499
 91
      503
 93
      113
310
90431303A310000000000000910100
  0
ACAD_PROXY_OBJECT
  5
58
102
{ACAD_REACTORS
330
47
102
}
330
47
100
AcDbProxyObject
 90
      499
 91
      503
 93
      121
310
9053130303A310000000000001650100
  0
ACAD_PROXY_OBJECT
  5
2F
102
{ACAD_REACTORS
330
2A
102
}
330
2A
100
AcDbProxyObject
 90
      499
 91
      501
 93
      436
310
42CC9915DA5C99599C985B595049028333333333333E33F0000000000000F90107901411070040501600405405064090741402480A0340
1001
ACAD
1000
AcDbSavedByObjectVersion
1070
     0
  0
ACAD_PROXY_OBJECT
  5
32
102
{ACAD_REACTORS
330
2A
102
}
330
2A
100
AcDbProxyObject
 90
      499
 91
      501
 93
      388
310
4150985CDA58D07406404333333333333E33F0000000000000F90107A41107004050150841D405064090741402480A0350
1001
ACAD
1000
AcDbSavedByObjectVersion
1070
     0
  0
ACAD_PROXY_OBJECT
  5
36
102
{ACAD_REACTORS
330
2A
102
}
330
2A
100
AcDbProxyObject
 90
      499
 91
      501
 93
      428
310
42109C9A59DA1D195B90C409028333333333333E33F0000000000000F9010790141107004050150841D405064090741402480A029950
1001
ACAD
1000
AcDbSavedByObjectVersion
1070
     0
  0
ACAD_PROXY_OBJECT
  5
3A
102
{ACAD_REACTORS
330
2A
102
}
330
2A
100
AcDbProxyObject
 90
      499
 91
      501
 93
      452
310
42D0DBDB1BDC90DA185B99D95104090240C333333333333E33F0000000000000F90108901411070040501508421405064090741402480A0350
1001
ACAD
1000
AcDbSavedByObjectVersion
1070
     0
  0
ACAD_PROXY_OBJECT
  5
34
102
{ACAD_REACTORS
330
2A
102
}
330
2A
100
AcDbProxyObject
 90
      499
 91
      501
 93
      500
310
4290DBDB98D95C1D1D585B10940D028333333333333E33F0000000000000F90107902409070040501000000000018199010841D405064090740C02480A0340
1001
ACAD
1000
AcDbSavedByObjectVersion
1070
     0
  0
ACAD_PROXY_OBJECT
  5
35
102
{ACAD_REACTORS
330
2A
102
}
330
2A
100
AcDbProxyObject
 90
      499
 91
      501
 93
      412
310
40D11A5B50B409028333333333333E33F0000000000000F9010790141107004050150841D405064090741402480A02677FFFFFD0
1001
ACAD
1000
AcDbSavedByObjectVersion
1070
     0
  0
ACAD_PROXY_OBJECT
  5
3D
102
{ACAD_REACTORS
330
2A
102
}
330
2A
100
AcDbProxyObject
 90
      499
 91
      501
 93
      452
310
43115919D950DBDB1BDC93D999916409028333333333333E33F0000000000000F9010790141107004050150841D405064090741402480A0350
1001
ACAD
1000
AcDbSavedByObjectVersion
1070
     0
  0
ACAD_PROXY_OBJECT
  5
39
102
{ACAD_REACTORS
330
2A
102
}
330
2A
100
AcDbProxyObject
 90
      499
 91
      501
 93
      444
310
42D19858D95C185D1D195C9B90F409028333333333333E33F0000000000000F9010790141107004050150841D405064090741402480A0350
1001
ACAD
1000
AcDbSavedByObjectVersion
1070
     0
  0
ACAD_PROXY_OBJECT
  5
2B
102
{ACAD_REACTORS
330
2A
102
}
330
2A
100
AcDbProxyObject
 90
      499
 91
      501
 93
      380
310
41119B185D240901404333333333333E33F0000000000000F9010740A907004050150841D405064090741402480A1B50
1001
ACAD
1000
AcDbSavedByObjectVersion
1070
     0
  0
ACAD_PROXY_OBJECT
  5
2C
102
{ACAD_REACTORS
330
2A
102
}
330
2A
100
AcDbProxyObject
 90
      499
 91
      501
 93
      468
310
43519B185D15DA5D1A115919D95CD0140901404333333333333E33F0000000000000F90107409019070040501600405405064090741402480A1B50
1001
ACAD
1000
AcDbSavedByObjectVersion
1070
     0
  0
ACAD_PROXY_OBJECT
  5
2D
102
{ACAD_REACTORS
330
2A
102
}
330
2A
100
AcDbProxyObject
 90
      499
 91
      501
 93
      404
310
41D1DBDD5C985D5910240902404333333333333E33F0000000000000F9010740A9070040501641D405064090741402480A1B50
1001
ACAD
1000
AcDbSavedByObjectVersion
1070
     0
  0
ACAD_PROXY_OBJECT
  5
2E
102
{ACAD_REACTORS
330
2A
102
}
330
2A
100
AcDbProxyObject
 90
      499
 91
      501
 93
      492
310
4411DBDD5C985D5915DA5D1A115919D95CD0340902404333333333333E33F0000000000000F90107409019070040501600405405064090741402480A1B50
1001
ACAD
1000
AcDbSavedByObjectVersion
1070
     0
  0
ACAD_PROXY_OBJECT
  5
31
102
{ACAD_REACTORS
330
2A
102
}
330
2A
100
AcDbProxyObject
 90
      499
 91
      501
 93
      476
310
41921A5919195B90640502408333333333333E33F0000000000000F901079024090700405020000000000001110200405405064090740C02480A0340
1001
ACAD
1000
AcDbSavedByObjectVersion
1070
     0
  0
ACAD_PROXY_OBJECT
  5
3B
102
{ACAD_REACTORS
330
2A
102
}
330
2A
100
AcDbProxyObject
 90
      499
 91
      501
 93
      428
310
42529A5D1D195C93D999914409028333333333333E33F0000000000000F9010790141107004050150A41D405064090741402480A0350
1001
ACAD
1000
AcDbSavedByObjectVersion
1070
     0
  0
ACAD_PROXY_OBJECT
  5
38
102
{ACAD_REACTORS
330
2A
102
}
330
2A
100
AcDbProxyObject
 90
      499
 91
      501
 93
      444
310
42D31A5B995C185D1D195C9B90E409028333333333333E33F0000000000000F9010790141107004050750841D405064090741402483A0350
1001
ACAD
1000
AcDbSavedByObjectVersion
1070
     0
  0
ACAD_PROXY_OBJECT
  5
3C
102
{ACAD_REACTORS
330
2A
102
}
330
2A
100
AcDbProxyObject
 90
      499
 91
      501
 93
      444
310
42D3DD995C9A185B99D3D999915409028333333333333E33F0000000000000F9010790141107004050150941D405064090741402480A0350
1001
ACAD
1000
AcDbSavedByObjectVersion
1070
     0
  0
ACAD_PROXY_OBJECT
  5
33
102
{ACAD_REACTORS
330
2A
102
}
330
2A
100
AcDbProxyObject
 90
      499
 91
      501
 93
      428
310
425499585B1A5CDD1A58D08409038333333333333E33F0000000000000F9010740A907004050150800405405064090740C02480A1B40
1001
ACAD
1000
AcDbSavedByObjectVersion
1070
     0
  0
ACAD_PROXY_OBJECT
  5
42
102
{ACAD_REACTORS
330
2A
102
}
330
2A
100
AcDbProxyObject
 90
      499
 91
      501
 93
      420
310
4194DA1859195911B40902404333333333333E33F0000000000000F9010740A41107004050150800405405064090840C02480A0B40
1001
ACAD
1000
AcDbSavedByObjectVersion
1070
     0
  0
ACAD_PROXY_OBJECT
  5
41
102
{ACAD_REACTORS
330
2A
102
}
330
2A
100
AcDbProxyObject
 90
      499
 91
      501
 93
      516
310
4454DA18591959081DDA5D1A08195919D95CD1A40902404333333333333E33F0000000000000F901074090142907004050250800405405064090740C02480A0B40
1001
ACAD
1000
AcDbSavedByObjectVersion
1070
     0
  0
ACAD_PROXY_OBJECT
  5
3E
102
{ACAD_REACTORS
330
2A
102
}
330
2A
100
AcDbProxyObject
 90
      499
 91
      501
 93
      532
310
4394DA1859195CC81BD98811DC985E5174090240C333333333333E33F0000000000000F901079024090741D01000000000000111010841D405064090740C02480A0340
1001
ACAD
1000
AcDbSavedByObjectVersion
1070
     0
  0
ACAD_PROXY_OBJECT
  5
3F
102
{ACAD_REACTORS
330
2A
102
}
330
2A
100
AcDbProxyObject
 90
      499
 91
      501
 93
      476
310
41D4DAD95D18DA1E51840502408333333333333E33F0000000000000F901079024090741D01000000000000111010B41D405064090741802480A0340
1001
ACAD
1000
AcDbSavedByObjectVersion
1070
     0
  0
ACAD_PROXY_OBJECT
  5
37
102
{ACAD_REACTORS
330
2A
102
}
330
2A
100
AcDbProxyObject
 90
      499
 91
      501
 93
      412
310
41D51A1A58DAD95B90D409028333333333333E33F0000000000000F9010790141107004050150C41D405064090741402480A0350
1001
ACAD
1000
AcDbSavedByObjectVersion
1070
     0
  0
ACAD_PROXY_OBJECT
  5
30
102
{ACAD_REACTORS
330
2A
102
}
330
2A
100
AcDbProxyObject
 90
      499
 91
      501
 93
      420
310
4255DA5C99599C985B595059028333333333333E33F0000000000000F90107901411070040501600405405064090740C02480A0340
1001
ACAD
1000
AcDbSavedByObjectVersion
1070
     0
  0
ACAD_PROXY_OBJECT
  5
40
102
{ACAD_REACTORS
330
2A
102
}
330
2A
100
AcDbProxyObject
 90
      499
 91
      501
 93
      404
310
41560B54985E51940902404000000000000E03F0000000000000F9010740501907004050150841D405064090740C02480A1B40
1001
ACAD
1000
AcDbSavedByObjectVersion
1070
     0
  0
XRECORD
  5
11E
102
{ACAD_REACTORS
330
114
102
}
330
114
100
AcDbXrecord
340
0
  0
XRECORD
  5
11D
102
{ACAD_REACTORS
330
114
102
}
330
114
100
AcDbXrecord
 90
        0
  0
XRECORD
  5
134
102
{ACAD_REACTORS
330
114
102
}
330
114
100
AcDbXrecord
1000
DSTYLE
1002
{
1070
   340
340
11
1002
}
  0
XRECORD
  5
11F
102
{ACAD_REACTORS
330
114
102
}
330
114
100
AcDbXrecord
  1
{dbf7a43d-818d-459d-94ff-3e86d1149ba5}
  0
XRECORD
  5
117
102
{ACAD_REACTORS
330
114
102
}
330
114
100
AcDbXrecord
  1

  0
XRECORD
  5
11C
102
{ACAD_REACTORS
330
114
102
}
330
114
100
AcDbXrecord
 90
        4
  0
XRECORD
  5
119
102
{ACAD_REACTORS
330
114
102
}
330
114
100
AcDbXrecord
340
1A
  0
XRECORD
  5
11B
102
{ACAD_REACTORS
330
114
102
}
330
114
100
AcDbXrecord
 90
    10781
  0
XRECORD
  5
11A
102
{ACAD_REACTORS
330
114
102
}
330
114
100
AcDbXrecord
340
19
  0
XRECORD
  5
121
102
{ACAD_REACTORS
330
114
102
}
330
114
100
AcDbXrecord
 40
0.0
  0
XRECORD
  5
124
102
{ACAD_REACTORS
330
114
102
}
330
114
100
AcDbXrecord
340
0
  0
XRECORD
  5
12A
102
{ACAD_REACTORS
330
114
102
}
330
114
100
AcDbXrecord
 10
0.0
 20
0.0
 30
0.0
  0
XRECORD
  5
126
102
{ACAD_REACTORS
330
114
102
}
330
114
100
AcDbXrecord
 10
0.0
 20
0.0
 30
0.0
  0
XRECORD
  5
129
102
{ACAD_REACTORS
330
114
102
}
330
114
100
AcDbXrecord
 10
0.0
 20
0.0
 30
0.0
  0
XRECORD
  5
127
102
{ACAD_REACTORS
330
114
102
}
330
114
100
AcDbXrecord
 10
0.0
 20
0.0
 30
0.0
  0
XRECORD
  5
128
102
{ACAD_REACTORS
330
114
102
}
330
114
100
AcDbXrecord
 10
0.0
 20
0.0
 30
0.0
  0
XRECORD
  5
125
102
{ACAD_REACTORS
330
114
102
}
330
114
100
AcDbXrecord
 10
0.0
 20
0.0
 30
0.0
  0
XRECORD
  5
122
102
{ACAD_REACTORS
330
114
102
}
330
114
100
AcDbXrecord
340
0
  0
XRECORD
  5
123
102
{ACAD_REACTORS
330
114
102
}
330
114
100
AcDbXrecord
 70
     0
  0
XRECORD
  5
118
102
{ACAD_REACTORS
330
114
102
}
330
114
100
AcDbXrecord
  1

  0
XRECORD
  5
115
102
{ACAD_REACTORS
330
114
102
}
330
114
100
AcDbXrecord
 90
        1
  0
XRECORD
  5
116
102
{ACAD_REACTORS
330
114
102
}
330
114
100
AcDbXrecord
 90
       70
  0
XRECORD
  5
12D
102
{ACAD_REACTORS
330
114
102
}
330
114
100
AcDbXrecord
340
0
  0
XRECORD
  5
133
102
{ACAD_REACTORS
330
114
102
}
330
114
100
AcDbXrecord
 10
0.0
 20
0.0
 30
0.0
  0
XRECORD
  5
12F
102
{ACAD_REACTORS
330
114
102
}
330
114
100
AcDbXrecord
 10
0.0
 20
0.0
 30
0.0
  0
XRECORD
  5
132
102
{ACAD_REACTORS
330
114
102
}
330
114
100
AcDbXrecord
 10
0.0
 20
0.0
 30
0.0
  0
XRECORD
  5
130
102
{ACAD_REACTORS
330
114
102
}
330
114
100
AcDbXrecord
 10
0.0
 20
0.0
 30
0.0
  0
XRECORD
  5
131
102
{ACAD_REACTORS
330
114
102
}
330
114
100
AcDbXrecord
 10
0.0
 20
0.0
 30
0.0
  0
XRECORD
  5
12E
102
{ACAD_REACTORS
330
114
102
}
330
114
100
AcDbXrecord
 10
0.0
 20
0.0
 30
0.0
  0
XRECORD
  5
12B
102
{ACAD_REACTORS
330
114
102
}
330
114
100
AcDbXrecord
340
0
  0
XRECORD
  5
12C
102
{ACAD_REACTORS
330
114
102
}
330
114
100
AcDbXrecord
 70
     0
  0
XRECORD
  5
120
102
{ACAD_REACTORS
330
114
102
}
330
114
100
AcDbXrecord
  1
{FAEB1C32-E019-11D5-929B-00C0DF256EC4}
  0
DICTIONARYVAR
  5
143
102
{ACAD_REACTORS
330
135
102
}
330
135
100
DictionaryVariables
280
     0
  1
1:1
  0
DICTIONARYVAR
  5
13C
102
{ACAD_REACTORS
330
135
102
}
330
135
100
DictionaryVariables
280
     0
  1
3.500000
  0
DICTIONARYVAR
  5
13D
102
{ACAD_REACTORS
330
135
102
}
330
135
100
DictionaryVariables
280
     0
  1
acadiso.lin
  0
DICTIONARYVAR
  5
137
102
{ACAD_REACTORS
330
135
102
}
330
135
100
DictionaryVariables
280
     0
  1
Standard
  0
DICTIONARYVAR
  5
136
102
{ACAD_REACTORS
330
135
102
}
330
135
100
DictionaryVariables
280
     0
  1
Standard
  0
DICTIONARYVAR
  5
13E
102
{ACAD_REACTORS
330
135
102
}
330
135
100
DictionaryVariables
280
     0
  1
2
  0
DICTIONARYVAR
  5
13F
102
{ACAD_REACTORS
330
135
102
}
330
135
100
DictionaryVariables
280
     0
  1
1
  0
DICTIONARYVAR
  5
144
102
{ACAD_REACTORS
330
135
102
}
330
135
100
DictionaryVariables
280
     0
  1
1
  0
DICTIONARYVAR
  5
139
102
{ACAD_REACTORS
330
135
102
}
330
135
100
DictionaryVariables
280
     0
  1
80.000000
  0
DICTIONARYVAR
  5
138
102
{ACAD_REACTORS
330
135
102
}
330
135
100
DictionaryVariables
280
     0
  1
5.000000
  0
DICTIONARY
  5
147
330
45
100
AcDbDictionary
280
     1
  3
ACAD_XREC_ROUNDTRIP
360
148
  0
DICTIONARY
  5
145
330
44
100
AcDbDictionary
280
     1
  3
ACAD_XREC_ROUNDTRIP
360
146
  0
DICTIONARY
  5
149
330
46
100
AcDbDictionary
280
     1
  3
ACAD_XREC_ROUNDTRIP
360
14A
  0
XRECORD
  5
148
102
{ACAD_REACTORS
330
147
102
}
330
147
100
AcDbXrecord
102
MATERIAL
148
0.0
149
0.0
149
0.0
 93
        0
 94
      127
282
     0
 72
     1
 77
     1
171
     1
175
     1
179
     1
273
     0
  0
XRECORD
  5
146
102
{ACAD_REACTORS
330
145
102
}
330
145
100
AcDbXrecord
102
MATERIAL
148
0.0
149
0.0
149
0.0
 93
        0
 94
      127
282
     0
 72
     1
 77
     1
171
     1
175
     1
179
     1
273
     0
  0
XRECORD
  5
14A
102
{ACAD_REACTORS
330
149
102
}
330
149
100
AcDbXrecord
102
MATERIAL
148
0.0
149
0.0
149
0.0
 93
        0
 94
      127
282
     0
 72
     1
 77
     1
171
     1
175
     1
179
     1
273
     0
  0
ENDSEC
  0
EOF
